<svg xmlns="http://www.w3.org/2000/svg" xmlns:xlink="http://www.w3.org/1999/xlink" viewBox="0 0 872.54 126.73"><defs><style>.cls-1{fill:none;}.cls-2{isolation:isolate;}.cls-3{clip-path:url(#clip-path);}.cls-10,.cls-12,.cls-13,.cls-14,.cls-15,.cls-17,.cls-18,.cls-4,.cls-5,.cls-6,.cls-7,.cls-8,.cls-9{fill-rule:evenodd;}.cls-4{fill:url(#Áåçûìÿííûé_ãðàäèåíò_260);}.cls-5,.cls-6,.cls-7{fill:#fff;}.cls-5{opacity:0.7;}.cls-6{mix-blend-mode:soft-light;}.cls-8{fill:url(#Áåçûìÿííûé_ãðàäèåíò_260-2);}.cls-11,.cls-14,.cls-15,.cls-16,.cls-18,.cls-19,.cls-9{opacity:0.5;}.cls-14,.cls-15,.cls-18,.cls-9{mix-blend-mode:multiply;}.cls-9{fill:url(#Áåçûìÿííûé_ãðàäèåíò_296);}.cls-10{fill:url(#Áåçûìÿííûé_ãðàäèåíò_260-3);}.cls-11,.cls-16,.cls-19{mix-blend-mode:screen;}.cls-11{fill:url(#Áåçûìÿííûé_ãðàäèåíò_86);}.cls-12{fill:url(#Áåçûìÿííûé_ãðàäèåíò_260-4);}.cls-13{fill:url(#Áåçûìÿííûé_ãðàäèåíò_260-5);}.cls-14{fill:url(#Áåçûìÿííûé_ãðàäèåíò_296-2);}.cls-15{fill:url(#Áåçûìÿííûé_ãðàäèåíò_296-3);}.cls-16{fill:url(#Áåçûìÿííûé_ãðàäèåíò_86-2);}.cls-17{fill:url(#Áåçûìÿííûé_ãðàäèåíò_260-6);}.cls-18{fill:url(#Áåçûìÿííûé_ãðàäèåíò_296-4);}.cls-19{fill:url(#Áåçûìÿííûé_ãðàäèåíò_86-3);}</style><clipPath id="clip-path" transform="translate(-57.45 -295.72)"><rect class="cls-1" width="1000" height="400"/></clipPath><radialGradient id="Áåçûìÿííûé_ãðàäèåíò_260" cx="372.58" cy="31.42" r="30.34" gradientUnits="userSpaceOnUse"><stop offset="0" stop-color="aqua"/><stop offset="1" stop-color="#0063ff"/></radialGradient><radialGradient id="Áåçûìÿííûé_ãðàäèåíò_260-2" cx="382.92" cy="43.24" r="16.28" xlink:href="#Áåçûìÿííûé_ãðàäèåíò_260"/><linearGradient id="Áåçûìÿííûé_ãðàäèåíò_296" x1="795.96" y1="104.28" x2="795.96" y2="95.3" gradientUnits="userSpaceOnUse"><stop offset="0" stop-color="#745ebd"/><stop offset="1" stop-color="#542e77"/></linearGradient><radialGradient id="Áåçûìÿííûé_ãðàäèåíò_260-3" cx="817.14" cy="92.29" r="39.79" xlink:href="#Áåçûìÿííûé_ãðàäèåíò_260"/><radialGradient id="Áåçûìÿííûé_ãðàäèåíò_86" cx="705.65" cy="79.65" r="21.03" gradientTransform="matrix(0, 2.54, -2.75, 0, 1091.76, -1433.09)" gradientUnits="userSpaceOnUse"><stop offset="0.01" stop-color="#474dff"/><stop offset="0.13" stop-color="#3c41d7"/><stop offset="0.37" stop-color="#272a8b"/><stop offset="0.59" stop-color="#16184f"/><stop offset="0.77" stop-color="#0a0b24"/><stop offset="0.92" stop-color="#03030a"/><stop offset="1"/></radialGradient><radialGradient id="Áåçûìÿííûé_ãðàäèåíò_260-4" cx="551.9" cy="93.19" r="31.76" xlink:href="#Áåçûìÿííûé_ãðàäèåíò_260"/><radialGradient id="Áåçûìÿííûé_ãðàäèåíò_260-5" cx="498.6" cy="98.58" r="13.7" xlink:href="#Áåçûìÿííûé_ãðàäèåíò_260"/><linearGradient id="Áåçûìÿííûé_ãðàäèåíò_296-2" x1="550.6" y1="102.03" x2="550.6" y2="95.31" xlink:href="#Áåçûìÿííûé_ãðàäèåíò_296"/><linearGradient id="Áåçûìÿííûé_ãðàäèåíò_296-3" x1="496.34" y1="102.03" x2="496.34" y2="97.55" xlink:href="#Áåçûìÿííûé_ãðàäèåíò_296"/><radialGradient id="Áåçûìÿííûé_ãðàäèåíò_86-2" cx="672.64" cy="174.36" r="21.03" gradientTransform="matrix(0, 2.54, -2.75, 0, 1078.85, -1338.35)" xlink:href="#Áåçûìÿííûé_ãðàäèåíò_86"/><radialGradient id="Áåçûìÿííûé_ãðàäèåíò_260-6" cx="797.6" cy="374.11" r="26.8" gradientTransform="matrix(-1, 0, 0, 1, 853.78, -295.72)" xlink:href="#Áåçûìÿííûé_ãðàäèåíò_260"/><linearGradient id="Áåçûìÿííûé_ãðàäèåíò_296-4" x1="60.7" y1="89.58" x2="60.7" y2="80.46" xlink:href="#Áåçûìÿííûé_ãðàäèåíò_296"/><radialGradient id="Áåçûìÿííûé_ãðàäèåíò_86-3" cx="600.06" cy="337.25" r="21.03" gradientTransform="matrix(0, 2.54, -2.75, 0, 1042.83, -1173)" xlink:href="#Áåçûìÿííûé_ãðàäèåíò_86"/></defs><g class="cls-2"><g id="crystal_01"><g class="cls-3"><polygon class="cls-4" points="348.85 42.13 347.4 47.41 366.83 47.92 395.88 22.61 400.46 4.13 378.74 3.8 348.85 42.13"/><polygon class="cls-5" points="378.74 3.8 369.11 20.28 389.78 20.28 400.46 4.13 378.74 3.8"/><polygon class="cls-6" points="369.11 20.28 347.4 47.41 348.85 42.13 378.74 3.8 369.11 20.28"/><polygon class="cls-7" points="370.54 17.84 373.93 20.28 368.05 21.6 370.54 17.84"/><polygon class="cls-8" points="380.39 37.99 389.78 33.59 396.72 35.2 385.88 45.84 371.69 52.82 372.15 47.92 368.05 47.92 380.39 37.99"/><polygon class="cls-5" points="389.78 33.59 380.39 37.99 386.22 41.33 396.72 35.2 389.78 33.59"/><polygon class="cls-6" points="368.05 47.92 372.86 47.21 386.22 41.33 380.39 37.99 368.05 47.92"/><polygon class="cls-7" points="384.36 40.27 386 41.42 388.78 39.83 384.36 40.27"/><polygon class="cls-9" points="777.55 95.3 760.73 97.67 794.3 104.28 831.18 101.9 819.93 96.98 777.55 95.3"/><polygon class="cls-10" points="777.55 95.3 806.52 47.29 833.42 35.2 846.86 36.28 819.93 96.98 792.55 98.78 777.55 95.3"/><polygon class="cls-5" points="806.52 47.29 827.84 54.98 840.14 39.61 833.42 35.2 806.52 47.29"/><polygon class="cls-6" points="792.55 98.78 827.84 54.98 806.52 47.29 777.55 95.3 792.55 98.78"/><polygon class="cls-7" points="823.82 59.97 825 53.7 831.18 50.8 823.82 59.97"/><ellipse class="cls-11" cx="872.61" cy="357.52" rx="57.88" ry="53.38" transform="translate(-127.18 26.14) rotate(-20.11)"/><polygon class="cls-12" points="525.28 96.85 519.92 66.53 530.15 61.02 555.15 62.57 572.17 85.9 575.91 95.31 525.28 96.85"/><polygon class="cls-5" points="519.92 66.53 546.22 69.92 555.99 66.2 555.15 62.57 530.15 61.02 519.92 66.53"/><polygon class="cls-6" points="546.22 69.92 550.01 96.15 525.28 96.85 519.92 66.53 546.22 69.92"/><polygon class="cls-7" points="542.9 69.49 548.16 69.18 546.4 71.17 542.9 69.49"/><polygon class="cls-13" points="484.53 98.52 488.74 84.46 492.55 82.61 503.36 84.46 508.15 97.55 484.53 98.52"/><polygon class="cls-5" points="488.74 84.46 495.43 91.44 502.05 92.34 503.36 84.46 492.55 82.61 488.74 84.46"/><polygon class="cls-6" points="495.43 91.44 495.43 98.03 484.53 98.52 488.74 84.46 495.43 91.44"/><polygon class="cls-7" points="494.34 90.31 497.15 91.67 495.43 93.03 494.34 90.31"/><polygon class="cls-14" points="525.28 96.85 542.9 102.03 572.4 99.79 575.91 95.31 525.28 96.85"/><polygon class="cls-15" points="484.53 98.52 489.98 102.03 504.86 100.9 508.15 97.55 484.53 98.52"/><ellipse class="cls-16" cx="599.06" cy="368.51" rx="57.88" ry="53.38" transform="translate(-147.64 -67.26) rotate(-20.11)"/><polygon class="cls-17" points="82.81 80.46 62.86 47.38 44.33 39.06 36.18 42.31 53.62 81.62 72.48 82.86 82.81 80.46"/><polygon class="cls-5" points="62.86 47.38 48.18 52.68 39.7 42.09 44.33 39.06 62.86 47.38"/><polygon class="cls-6" points="72.48 82.86 48.18 52.68 62.86 47.38 82.81 80.46 72.48 82.86"/><polygon class="cls-7" points="50.94 56.12 50.13 51.8 45.87 49.8 50.94 56.12"/><polygon class="cls-18" points="53.62 81.62 38.58 87.5 52.3 89.58 82.81 80.46 72.48 82.86 53.62 81.62"/><ellipse class="cls-19" cx="114.83" cy="349.67" rx="57.88" ry="53.38" transform="translate(-170.68 -234.92) rotate(-20.11)"/></g></g></g></svg>