<svg xmlns="http://www.w3.org/2000/svg" xmlns:xlink="http://www.w3.org/1999/xlink" viewBox="0 0 221.25 221.83"><defs><style>.cls-1{fill:none;}.cls-2{isolation:isolate;}.cls-3{clip-path:url(#clip-path);}.cls-4,.cls-5{mix-blend-mode:screen;}.cls-4{fill:url(#Áåçûìÿííûé_ãðàäèåíò_354);}.cls-5{fill:url(#Áåçûìÿííûé_ãðàäèåíò_348);}.cls-6,.cls-7,.cls-8,.cls-9{fill-rule:evenodd;}.cls-6{opacity:0.44;fill:url(#Áåçûìÿííûé_ãðàäèåíò_340);}.cls-7{fill:#9a86d6;}.cls-7,.cls-8{opacity:0.3;mix-blend-mode:multiply;}.cls-8{fill:url(#Áåçûìÿííûé_ãðàäèåíò_559);}.cls-9{mix-blend-mode:soft-light;fill:url(#Áåçûìÿííûé_ãðàäèåíò_714);}</style><clipPath id="clip-path" transform="translate(-372.67 -27.44)"><rect class="cls-1" width="1000" height="400"/></clipPath><radialGradient id="Áåçûìÿííûé_ãðàäèåíò_354" cx="-640.6" cy="166.11" r="46.46" gradientTransform="matrix(0, -2.39, -2.37, 0, 877.66, -1395.25)" gradientUnits="userSpaceOnUse"><stop offset="0" stop-color="#3d41ff"/><stop offset="0.12" stop-color="#3c40fb"/><stop offset="0.25" stop-color="#393dee"/><stop offset="0.37" stop-color="#3438da"/><stop offset="0.5" stop-color="#2d30bd"/><stop offset="0.63" stop-color="#242798"/><stop offset="0.76" stop-color="#191b6a"/><stop offset="0.89" stop-color="#0d0d35"/><stop offset="1"/></radialGradient><radialGradient id="Áåçûìÿííûé_ãðàäèåíò_348" cx="-639.61" cy="164.32" r="39.64" gradientTransform="matrix(0, -2.39, -2.37, 0, 875.36, -1397.31)" gradientUnits="userSpaceOnUse"><stop offset="0" stop-color="#8168ff"/><stop offset="0.22" stop-color="#8067fc"/><stop offset="0.36" stop-color="#7b63f4"/><stop offset="0.47" stop-color="#745ee5"/><stop offset="0.57" stop-color="#6a55d1"/><stop offset="0.66" stop-color="#5c4ab6"/><stop offset="0.75" stop-color="#4c3d96"/><stop offset="0.83" stop-color="#382d6f"/><stop offset="0.91" stop-color="#211b42"/><stop offset="0.98" stop-color="#080710"/><stop offset="1"/></radialGradient><radialGradient id="Áåçûìÿííûé_ãðàäèåíò_340" cx="862.97" cy="-239.72" r="95.1" gradientTransform="matrix(-0.99, -0.15, -0.15, 0.99, 1326.73, 503.24)" gradientUnits="userSpaceOnUse"><stop offset="0" stop-color="#895cc2"/><stop offset="0.32" stop-color="#865ac0"/><stop offset="0.53" stop-color="#7d52ba"/><stop offset="0.71" stop-color="#6e45af"/><stop offset="0.87" stop-color="#5934a0"/><stop offset="1" stop-color="#432190"/></radialGradient><linearGradient id="Áåçûìÿííûé_ãðàäèåíò_559" x1="837.92" y1="-248.42" x2="837.92" y2="-251.76" gradientTransform="matrix(-0.99, -0.15, -0.15, 0.99, 1326.73, 503.24)" gradientUnits="userSpaceOnUse"><stop offset="0" stop-color="#e8ddff"/><stop offset="1" stop-color="#aa8ad8"/></linearGradient><radialGradient id="Áåçûìÿííûé_ãðàäèåíò_714" cx="829.01" cy="-284.98" r="56.6" gradientTransform="matrix(-0.99, -0.15, -0.15, 0.99, 1326.73, 503.24)" gradientUnits="userSpaceOnUse"><stop offset="0" stop-color="#fff"/><stop offset="1" stop-color="#8b8dcc"/></radialGradient></defs><g class="cls-2"><g id="planet_01"><g class="cls-3"><ellipse class="cls-4" cx="483.3" cy="138.35" rx="110.29" ry="111.23" transform="translate(-361.26 284.23) rotate(-36.14)"/><ellipse class="cls-5" cx="485.31" cy="133.94" rx="94.09" ry="94.89" transform="translate(-358.28 284.54) rotate(-36.14)"/><path class="cls-6" d="M397.63,122.87c-.14.88-.26,1.77-.37,2.64a87.6,87.6,0,0,0,.56,25.91,88.34,88.34,0,0,0,162.56,30.87q1.39-2.29,2.66-4.69A88.39,88.39,0,0,0,506.88,50.94c-2.16-.56-4.34-1-6.57-1.41h0c-.6-.12-1.21-.21-1.81-.31a88.49,88.49,0,0,0-19.37-.88,82.62,82.62,0,0,0-11.71,1.55,88.32,88.32,0,0,0-69.76,73Z" transform="translate(-372.67 -27.44)"/><path class="cls-7" d="M418.43,78.29,419,78a18.87,18.87,0,0,1,3.55-1.44c1-.27,2.07-.19,3-.37a22.69,22.69,0,0,0,4.86-1.66c1.9-.85,3.84-1.16,5.75-2,5-2.11,8.4-6.82,12.05-10.61a23.57,23.57,0,0,0,2.23-2.47,6.94,6.94,0,0,1,1.82-1.55,9,9,0,0,1,5.14-2c1.14,0,2,.81,3,1.41,1.34.81,1.82,1.11.79,2.28-1.78,2-4.32,4-2.56,7a46.74,46.74,0,0,0,3.44,5.52c1.53,1.9,2.73,4.6,5.16,5.6,1.8.73,3.81-.37,5.62-.75a18.77,18.77,0,0,1,4.92-.82,15.08,15.08,0,0,1,3.52,1.08c1.89.58,4.08.56,5.26-1.14.46-.64.27-.88,1.06-1.28a7.74,7.74,0,0,1,2.66-.45c2.38-.15,4.8.44,7.15.24a40.42,40.42,0,0,0,4.76-.93,20.9,20.9,0,0,0,3.1-.42c.51-.21,1.08-.66,1.62-.91a6.26,6.26,0,0,1,4.45-.69,28.93,28.93,0,0,1,10.94,4.57c1.9,1.4,1.72,2.56.74,4.41-.83,1.59-2.64,3.48-2.5,5.34.1,1.57,1.11,3,1.41,4.49s.59,2.89-.27,4.23c-1.44,2.27-4,3.79-5.65,5.85-1.88,2.33-3.35,6.53-.91,8.86a12.54,12.54,0,0,1,2.47,4.06c.48,1,.88,2.52,2.28,2.42.93-.07,1.85-1.13,2.76-1.27a3.12,3.12,0,0,1,2.61,1c1.16,1,2.79,2.06,3.64,3.35,1.56,2.37.75,6.69-.76,8.88-1.82,2.64-3.48,5.4-6.7,6.39-2,.63-4.4.28-5.84,2.19-.88,1.19-.87,2.49-1.38,3.79a31.15,31.15,0,0,0-1.6,3.74,21.12,21.12,0,0,1-1.3,3.73,45.72,45.72,0,0,1-2.48,5.13c-1.17,1.87-3,3.06-4.47,4.6-1.35,1.35-2.85,1.9-4.33,3.08s-3.59,2.22-4.79,3.94c-.91,1.29-1.67,2.69-2.65,4-2.76,3.47-6.26.35-8.69-1.89a25.09,25.09,0,0,1-4.49-4.84,27.18,27.18,0,0,0-3.18-4.36,37.66,37.66,0,0,0-3.91-3.67,5.69,5.69,0,0,1-1.61-1.33,4.88,4.88,0,0,1-.59-3.38c.34-2.57.37-6,1.36-8.35,1.06-2.63,4.05-1.89,6.2-1.6,1.23.16,2.81.2,3.59-.86s.71-2.21,1.6-3.21a3,3,0,0,1,3.56-.8c.59.22,1,.6,1.6.79s1.18-.06,1.6.53c.9,1.23-1.08,2.41-1.87,3.16-1.42,1.33-1.59,1.66-1,3.51.34,1.06,1,2.75,2.36,2.42,1-.24,2-2.15,2.67-2.78,3-2.69,6-5.4,3.81-9.73-.68-1.36-1.51-1.38-2.49-2.32s-1.28-2.61-2.4-3.59c-1.47-1.27-4.06-1.14-5.92-1.45a35.46,35.46,0,0,0-7-.38,10.69,10.69,0,0,0-4,1.12c-1.39.55-2.74-.22-4.17-.12-2.63.19-4,1.88-6,3.42s-2.43,3.06-3.39,5.29a61.54,61.54,0,0,0-4.35,14.2c-.63,4.22-1,8.61-2.53,12.56a35.12,35.12,0,0,1-2.69,5.34c-.34.55-.53.32-.51,1.14a10.63,10.63,0,0,0,.75,2.45c.6,1.21,2.11,2.36,3,3.46a23,23,0,0,0,2.87,2.71c1.41,1.32,2.84,2.48,4.27,3.74,2.33,2,1.74,5.47,3.67,7.93,2.73,3.48,6.35,4.62,10.11,6.72a85.41,85.41,0,0,1,8.84,5.07c1.73,1.25,3,2.74,4.87,3.85a69,69,0,0,0,7.5,3.25,18,18,0,0,0,6.24,1.56,26.65,26.65,0,0,1,4,0c2.6.41,5.23.86,7.86,1.23a12.45,12.45,0,0,0,4.08-.59c1.4-.28,2.81-.69,4.22-1,3.7-.78,8.76-.66,11.61-3.46.83-.81,1.49-1.84,2.38-2.61a18,18,0,0,1,2.47-1.36,16.17,16.17,0,0,1,2-1.1,11.1,11.1,0,0,0,2.83-1.91,10.58,10.58,0,0,1,2.75-1.48,8,8,0,0,0,1.83-.61c.53-.43.31-.73.51-1.35s.63-1.2.9-1.86a8.17,8.17,0,0,1,4.1-4.67,12.52,12.52,0,0,0,2.81-1.1,8.39,8.39,0,0,0,3.73-4l0,.17a88.51,88.51,0,0,1-47.85,38c-.58-.36-1.14-.72-1.67-1.09a11.19,11.19,0,0,0-5.22-1.66,40.76,40.76,0,0,1-7.42-1.88,35.69,35.69,0,0,0-6.59-1.45c-2.83-.41-5.47-1.47-8.33-1.89a39.13,39.13,0,0,0-8,.22c-3.88.25-7.71-1.43-11.3-2.77-1.62-.6-3-1.78-4.69-2.29-1-.31-2-.4-3-.79a27.7,27.7,0,0,0-8.23-1.61c-1.76,0-2.67,1.21-4.08,1.86s-3.19-.31-4.7-.37a5.32,5.32,0,0,0-4.35,2.67,88.62,88.62,0,0,1-37.08-57.86c2.42.39,5.75,2.93,7.17,3,.86.06,1.66-.31,2.59-.17a11,11,0,0,1,2.31.83c1.21.44,2.74,1,3.61-.12s0-3.54,1.91-3.54c.94,0,1.69.85,2.76.82a10.64,10.64,0,0,1,2.52.08,27.28,27.28,0,0,1,4.15,1.25,4.79,4.79,0,0,0,2,0,12.5,12.5,0,0,0,2.2,0c1.8-.62.61-2.56.1-3.66a15.8,15.8,0,0,1-.88-1.86,5.25,5.25,0,0,1-.05-1.72,7.57,7.57,0,0,0-2.19-4.6,27.58,27.58,0,0,1-4.42-6.38,6.59,6.59,0,0,1-1-2.81c0-.84-.06-1.68-.11-2.53a17.53,17.53,0,0,0-.41-2.88c-.26-1.34-.06-2.68-.27-4-.19-1.14-1.05-3.55-2-4.33-.44-.35-1.05-.37-1.48-.82s-.43-1-1-1.28c-1.25-.75-3.93,0-5.23.27a16.28,16.28,0,0,0-5.77,2.52,33.09,33.09,0,0,0-4.42,4.18,7.42,7.42,0,0,1-2.77,1.82c.11-.87.23-1.76.37-2.64A87.8,87.8,0,0,1,418.43,78.29Zm38.7,47.48c.11.62,1.25,1.13,1.81,1.12,1.14,0,2.21-1.14,3.16-1.71a4.43,4.43,0,0,0,2.11-2.61l-.91.44c1-1,2.46-1.9,1.71-3.55a1.67,1.67,0,0,0-2.16-.84,10.18,10.18,0,0,0-4.27,1.89,4.15,4.15,0,0,0-1,2.74A10,10,0,0,0,457.13,125.77ZM446.42,73.48a5,5,0,0,0,2.17,2.42,9.74,9.74,0,0,0,2.75,1c1.88.31,3.85-.91,5.38-1.79.89-.49,2.89-2,.3-1.64a4.52,4.52,0,0,0,.87-1.91,9.55,9.55,0,0,0-.1-1.6c-.09-1.18-.62-2.21-.79-3.35a13.29,13.29,0,0,1-.19-2.82c.06-.8.41-1.46-.23-2.13a1,1,0,0,0-1.25-.26c-.52.21-1,.93-1.49,1.3s-1,.84-1.46,1.29c-1.42,1.27-2.29,3.05-3.59,4.43a10,10,0,0,0-1.92,2.26A3.64,3.64,0,0,0,446.42,73.48Zm-40.06,38c.66,1.69,2.91,2.5,4.51,3,2.36.7,5.36.43,7.81.19a6,6,0,0,0,2.69-.8c.94-.52,2.11-.71.62-.75a35.4,35.4,0,0,0,1.65-3.87c.6-1.65,1.6-3.19,2.36-4.79,1.26-2.65,2.81-5.83,2.5-8.86-.21-2-1.37-4.27-3.2-5.13a8,8,0,0,0-4.39-.68,13.54,13.54,0,0,0-4.83,2.11,9.24,9.24,0,0,0-3.58,3.73c-.54,1.13-.84,2.36-1.46,3.44-.31.55-.61,1-.89,1.63a7.07,7.07,0,0,1-1.46,1.77,5.32,5.32,0,0,0-1.74,2.64c-.22,1.1-.33,2.21-.5,3.31A5.67,5.67,0,0,0,406.36,111.52Z" transform="translate(-372.67 -27.44)"/><path class="cls-7" d="M531.49,117.93c.24.83.63,2.76,1.47,3.33s2.35-.29,3.22-.59a14.31,14.31,0,0,1,2.16-.78,13,13,0,0,0,1.88-.2,5.66,5.66,0,0,0,1.63-.7,4.23,4.23,0,0,0,.83-1.31,29.75,29.75,0,0,0,1.39-3.84,4.26,4.26,0,0,0,.13-2.27c-.13-1.09-.18-2.19-.35-3.28a21,21,0,0,0-1.05-4.69,6,6,0,0,0-2.62-2.9c-.51-.32-1.09-.47-1.59-.8a9.77,9.77,0,0,0-1.91-1.1,3.78,3.78,0,0,0-1.24-.27,3.21,3.21,0,0,0-1.27.4,3.33,3.33,0,0,0-1.56.8,4.82,4.82,0,0,0-1,1.36c-.49,1-1.2,2-1.62,3.11a6.8,6.8,0,0,0-.43,4.18,24,24,0,0,1,.43,4.08,11.13,11.13,0,0,0,.61,3.83C531,117.08,531.49,117.65,531.49,117.93Z" transform="translate(-372.67 -27.44)"/><path class="cls-8" d="M538,125.51a2.74,2.74,0,0,1,.63,1.52c-.77.27-.93,1.6-1.91,1.67-.39-.64-1.54-1.46-.81-2.31.1-.12.44-.15.57-.25s.29-.42.51-.49a6.67,6.67,0,0,1,2.08.32Z" transform="translate(-372.67 -27.44)"/><path class="cls-7" d="M518.81,129.66a4.87,4.87,0,0,1-1.43,1.49c-.54.35-1.18.67-1.74,1a20.93,20.93,0,0,0-3.19,1.92c-.86.77-.73,1.57-1,2.55-.16.59-.43,1.18-.64,1.76a7.2,7.2,0,0,0-.37,1,6.22,6.22,0,0,1-.24,1.2c-.34.79-1,1.33-1.35,2.13a4.9,4.9,0,0,1-.89,1.8,5.22,5.22,0,0,1-1.35.69,6.43,6.43,0,0,0-1.49,1.22c-1.57,1.57-2.05,3.75-3.45,5.39s-4,.62-5.62.68c-.27,0-.54.19-.82.12s-.57-.37-.83-.52a2.58,2.58,0,0,0-1.52-.38c-.34,0-.18.27-.64.09-.28-.11-.56-.67-.67-.92a2.53,2.53,0,0,1,.22-2.25c.37-.79.71-1.6,1.08-2.39a18.7,18.7,0,0,0,1.09-2.14c.24-.76.21-1.55.46-2.31.62-1.84,1.83-2.59,3.39-3.69s3.5-1.7,3.7-3.67c.08-.8-.25-.88-.56-1.49a8.37,8.37,0,0,0-.94-2.12,7.55,7.55,0,0,0-1.25-.76,13.32,13.32,0,0,1-1.78-1c-.62-.45-.53-1-.89-1.53-.23-.36-.26-.17-.58-.41a2.48,2.48,0,0,1-.78-.88,7.14,7.14,0,0,1-1.06-2.14,5,5,0,0,0-.77-1.85,19.28,19.28,0,0,0-1.67-2,6,6,0,0,0-2.27-1.46,8,8,0,0,0-1.3-.19,9.79,9.79,0,0,1-3.4-1.77c-1.57-1-3.81-3.39-5.72-1.81-.57.47-.7,1.26-1.38,1.64-1.44.82-2.91-.23-4.13-1a20.68,20.68,0,0,1-5.1-4.91c-.95-1.19-1.75-2.21-1.58-3.81.33-3.09,3.15-4.77,4-7.63s0-6,.06-8.82a6.63,6.63,0,0,1,1.43-4.35,5.94,5.94,0,0,1,1.39-1C474.34,84.56,475,85,476,85a2.7,2.7,0,0,0,1.6-.63c1.49-.9,3.88.08,5.45.3a14.65,14.65,0,0,0,7.09-.38A67.43,67.43,0,0,0,497.78,81a41.17,41.17,0,0,1,5.61-2.57,10.18,10.18,0,0,1,4.29-.25A5.86,5.86,0,0,1,512.41,81c1,1.67.22,2.39-.56,3.94-.25.5-.88,1.51-.64,2.12.37.91,2,.93,2.79,1s2.29,0,2.55,1a8.77,8.77,0,0,1-.4,2.75c-.11.67,0,1.47-.58,1.91s-1,.29-1.44.46c-.85.29-1.15,1-1.72,1.61a8.08,8.08,0,0,1-1.55,1,9.68,9.68,0,0,1-2,1.36c-1.25.42-2.35-.07-3.54.78a6.25,6.25,0,0,1-1.22.89,5.51,5.51,0,0,1-1.2.22c-.95.19-2.38.55-2.67,1.65s1.1,2.09,1.94,2.47,2,.57,2.08,1.53-.5,1.45-.11,2.27c1.23,2.58,4.68,1.21,6.86,1.61,3.28.6,4.61,3.64,5.91,6.32.13.26.37.46.49.71.21.44,0,.66.15,1.09a2.55,2.55,0,0,0,1.17,1.32,4.4,4.4,0,0,0,1.84.93c.84.16,1.78.15,2.6.39,1.64.49,1.94,2.47,1.27,3.92-.44.92-1.72,1.47-2.33,2.29a13.22,13.22,0,0,1-1.5,1.92,13.1,13.1,0,0,1-1.2.79C518.89,129.66,518.61,130.29,518.81,129.66Z" transform="translate(-372.67 -27.44)"/><path class="cls-7" d="M455.38,129.77a8,8,0,0,1-.14,2.41c-.19.71-.45,1.35-.58,2.08-.35,1.9-.31,3.9-.59,5.83a17.05,17.05,0,0,1-1,3.08c-.48,1.4-.19,2.82-.43,4.23-.33,1.95-.69,4-2.2,5.39a2.31,2.31,0,0,1-2,.77c-.76-.08-1.32-.58-2.11-.66a4.63,4.63,0,0,0-1.77.5c-.8.22-1.61.4-2.42.58a4.3,4.3,0,0,0-1.81.87c-.55.38-1.28.5-1.56,1.18s.43,1.28.78,1.88a8.65,8.65,0,0,0,2.56,3.1,2.23,2.23,0,0,0,2,.42,2.42,2.42,0,0,1,2.24.32,8,8,0,0,1,2.11,3,5.6,5.6,0,0,1,.16.84c0,.58,0,.19-.32.56s-.69.66-.78,1.24a6.76,6.76,0,0,0,.41,2.92,4.77,4.77,0,0,0,.91,1.59c.48.52.75,1.1,1.29,1.59,1.05,1,1.66,2.11,2.84,3a28.25,28.25,0,0,1,3.74,3.44c2.49,2.57,5.26,4.55,6.56,8,.32.85.46,2.56-.17,3.33-.24.3-.82.5-1.13.77a5.8,5.8,0,0,0-1.19,1.77,6.13,6.13,0,0,1-1.77,2.26,5.51,5.51,0,0,1-2.88.4,14.2,14.2,0,0,0-1.46-.18c-.38,0-.66.11-1.08.07a7.5,7.5,0,0,0-4.14.24,4.39,4.39,0,0,0-1.28.89c-.46.43-.82,1.14-1.33,1.49-1,.7-2.81-.41-3.66-.89-1.24-.71-2.6-1.8-4.12-1.75-.91,0-1.68.61-2.59.77a14,14,0,0,0-3.37,1,2.1,2.1,0,0,1-1.3.31c-1.7-.17-3.2-1.4-4.51-2.42-1.55-1.21-2.91-2.65-4.46-3.85a20.34,20.34,0,0,1-4.11-4.28,45.33,45.33,0,0,0-4-4.12c-1-1.06-2-2.15-3-3.22a31.18,31.18,0,0,1-2.58-3.65,18.11,18.11,0,0,1-1.88-2.89,38.26,38.26,0,0,0-1.66-3.62,19.75,19.75,0,0,1-1.73-3.66c-.43-1.21-1.07-3.57.68-4.2,1.26-.44,2.95.18,4.22.36,2,.28,3.75-.79,5.24-2.05,1.2-1,2.2-2.21,3.5-3.13.63-.46,1.39-1.27,2.2-1.38a4.71,4.71,0,0,1,2,.33,10.64,10.64,0,0,0,4.19.72,8.24,8.24,0,0,0,4.14-.94,19.83,19.83,0,0,0,1.87-1.8c.9-.84.91-2.66.66-3.83-.52-2.47-.35-5-1-7.47-.4-1.54-2.38-1.42-3.51-2.3a9.5,9.5,0,0,1-1.8-2.53,18.18,18.18,0,0,0-2-2.08,4.73,4.73,0,0,1,.33-7.35,4.55,4.55,0,0,1,5-.71c.74.36,1.51.68,2.21,1.11a12.2,12.2,0,0,0,2.72,1.65c4.07,1.31,7.93-.43,11.64-1.87A15.26,15.26,0,0,1,451.7,128a2.58,2.58,0,0,1,2.16.63,14.74,14.74,0,0,0,1.75,1.05C456.29,130.12,456.66,130.84,455.38,129.77Z" transform="translate(-372.67 -27.44)"/><path class="cls-9" d="M479.1,48.33l.39.14a22.85,22.85,0,0,0,5.5,1.37,6.91,6.91,0,0,0,1.41.23c.33,0,.49-.18.85-.17.77,0,1.57,0,2.3-.06a16.54,16.54,0,0,1,4.2.52c1.65.27,3.46-.24,5.06.19s3.3,1.41,5.1,1.67l1.25.19c1.07.18,1.45.87,2.54,1.54.13.79.14,2.15.7,2.76a3.54,3.54,0,0,0,.72.57,16.46,16.46,0,0,0,2.07,1.21A21.2,21.2,0,0,0,515.53,60a29.12,29.12,0,0,0,3.73.28c2.49.15,4.89.18,7.06,1.6,1.19.79,2.37,1.64,3.59,2.41A14.26,14.26,0,0,1,532,65.78c.46.43.81,1,1.23,1.44a7.62,7.62,0,0,0,2,1.08,4.46,4.46,0,0,1,1.64,1.88c.57,1.07.27,2.2.68,3.24a3.72,3.72,0,0,0,1.3,1.37c2.29,1.85,2.68,4.64,4.28,7,1.14,1.72,3.16,2.6,4.46,4.25A52.27,52.27,0,0,1,551,91.29a6.18,6.18,0,0,0,2.53,2.34,10.19,10.19,0,0,1,3,2.84c.75,1.18,1.44,2.35,2.31,3.46.67.88,1.62,1.48,2.26,2.37a15.78,15.78,0,0,1,1.2,2.77c.89,2,1.22,4.18,2,6.24.67,1.69,2.1,3.34,1.91,5.24a4.83,4.83,0,0,1-.48,1.63,13.87,13.87,0,0,0-.47,2.75,6.67,6.67,0,0,1-.59,1.37,13.56,13.56,0,0,1-.76,1.85,23,23,0,0,1-2.4,2.22,3.76,3.76,0,0,0-.79,3.25c.2,1.23.46,2.49.74,3.69.41,1.86,1.74,3.63,1.86,5.57a5.06,5.06,0,0,1-.56,2c-.28.77-.54,1.67-.74,2.46a6.7,6.7,0,0,0-.11,2.56,5.69,5.69,0,0,0,.6,1.67c.11.25.36.44.49.69a8.59,8.59,0,0,1,.32,1.44c.13.49.39,1.63.84,1.94.94.66,1.62-1.32,2.18-.6.4.5-.11,1.52-.13,2.09a7.5,7.5,0,0,0,.33,2.39c.42,1.47.91,1.91.3,3.33a12.53,12.53,0,0,1-1.93,3.09c-1,1.18-.9,2.5-1.46,3.82a12,12,0,0,0-.41,2.24,11.7,11.7,0,0,1-.81,1.94,3.58,3.58,0,0,0-.28,1.82c.09.38.51.64.72.95a3.8,3.8,0,0,1,.4,1.91,10.34,10.34,0,0,1-.09,3A88.39,88.39,0,0,0,506.88,50.94c-2.16-.56-4.34-1-6.57-1.41h0c-.6-.12-1.21-.21-1.81-.31A88.49,88.49,0,0,0,479.1,48.33Z" transform="translate(-372.67 -27.44)"/></g></g></g></svg>