<svg xmlns="http://www.w3.org/2000/svg" xmlns:xlink="http://www.w3.org/1999/xlink" viewBox="0 0 333 387.65"><defs><style>.cls-1{fill:none;}.cls-2{isolation:isolate;}.cls-3{clip-path:url(#clip-path);}.cls-10,.cls-11,.cls-12,.cls-13,.cls-14,.cls-15,.cls-16,.cls-17,.cls-18,.cls-19,.cls-20,.cls-21,.cls-22,.cls-23,.cls-24,.cls-25,.cls-26,.cls-27,.cls-28,.cls-29,.cls-30,.cls-31,.cls-32,.cls-33,.cls-34,.cls-35,.cls-36,.cls-37,.cls-38,.cls-39,.cls-4,.cls-40,.cls-41,.cls-42,.cls-43,.cls-44,.cls-45,.cls-46,.cls-47,.cls-48,.cls-49,.cls-5,.cls-50,.cls-51,.cls-52,.cls-53,.cls-54,.cls-55,.cls-56,.cls-57,.cls-6,.cls-7,.cls-8,.cls-9{fill-rule:evenodd;}.cls-4{fill:url(#Áåçûìÿííûé_ãðàäèåíò_3);}.cls-10,.cls-18,.cls-20,.cls-21,.cls-22,.cls-29,.cls-30,.cls-31,.cls-32,.cls-33,.cls-34,.cls-35,.cls-36,.cls-37,.cls-38,.cls-41,.cls-42,.cls-43,.cls-46,.cls-47,.cls-48,.cls-49,.cls-5,.cls-50,.cls-51,.cls-52,.cls-53,.cls-54,.cls-55,.cls-56,.cls-58,.cls-59,.cls-6,.cls-7,.cls-8,.cls-9{opacity:0.5;}.cls-10,.cls-13,.cls-18,.cls-20,.cls-21,.cls-22,.cls-23,.cls-29,.cls-30,.cls-31,.cls-32,.cls-33,.cls-34,.cls-35,.cls-36,.cls-37,.cls-38,.cls-41,.cls-42,.cls-43,.cls-47,.cls-48,.cls-49,.cls-5,.cls-50,.cls-51,.cls-52,.cls-53,.cls-54,.cls-55,.cls-56,.cls-6,.cls-7,.cls-8,.cls-9{mix-blend-mode:multiply;}.cls-5{fill:url(#Áåçûìÿííûé_ãðàäèåíò_296);}.cls-6{fill:url(#Áåçûìÿííûé_ãðàäèåíò_296-2);}.cls-7{fill:url(#Áåçûìÿííûé_ãðàäèåíò_296-3);}.cls-8{fill:url(#Áåçûìÿííûé_ãðàäèåíò_296-4);}.cls-9{fill:url(#Áåçûìÿííûé_ãðàäèåíò_296-5);}.cls-10{fill:url(#Áåçûìÿííûé_ãðàäèåíò_296-6);}.cls-11{fill:#452c8d;}.cls-12{fill:#4a328d;}.cls-13,.cls-23{opacity:0.6;}.cls-13{fill:url(#Áåçûìÿííûé_ãðàäèåíò_296-7);}.cls-14{fill:#43377a;}.cls-15{fill:#413470;}.cls-16{fill:#84989f;}.cls-16,.cls-17,.cls-19,.cls-26,.cls-40{mix-blend-mode:soft-light;}.cls-17{fill:#979fb3;}.cls-18{fill:url(#Áåçûìÿííûé_ãðàäèåíò_296-8);}.cls-19{fill:#8eb8b0;}.cls-20{fill:url(#Áåçûìÿííûé_ãðàäèåíò_296-9);}.cls-21{fill:url(#Áåçûìÿííûé_ãðàäèåíò_296-10);}.cls-22{fill:url(#Áåçûìÿííûé_ãðàäèåíò_296-11);}.cls-23{fill:url(#Áåçûìÿííûé_ãðàäèåíò_296-12);}.cls-24{fill:url(#Áåçûìÿííûé_ãðàäèåíò_260);}.cls-25,.cls-26,.cls-27{fill:#fff;}.cls-25{opacity:0.7;}.cls-28{fill:url(#Áåçûìÿííûé_ãðàäèåíò_3-2);}.cls-29{fill:url(#Áåçûìÿííûé_ãðàäèåíò_296-13);}.cls-30{fill:url(#Áåçûìÿííûé_ãðàäèåíò_296-14);}.cls-31{fill:url(#Áåçûìÿííûé_ãðàäèåíò_296-15);}.cls-32{fill:url(#Áåçûìÿííûé_ãðàäèåíò_296-16);}.cls-33{fill:url(#Áåçûìÿííûé_ãðàäèåíò_296-17);}.cls-34{fill:url(#Áåçûìÿííûé_ãðàäèåíò_296-18);}.cls-35{fill:url(#Áåçûìÿííûé_ãðàäèåíò_296-19);}.cls-36{fill:url(#Áåçûìÿííûé_ãðàäèåíò_296-20);}.cls-37{fill:url(#Áåçûìÿííûé_ãðàäèåíò_296-21);}.cls-38{fill:url(#Áåçûìÿííûé_ãðàäèåíò_296-22);}.cls-39{fill:url(#Áåçûìÿííûé_ãðàäèåíò_321);}.cls-40{fill:#93839c;}.cls-41{fill:url(#Áåçûìÿííûé_ãðàäèåíò_296-23);}.cls-42{fill:url(#Áåçûìÿííûé_ãðàäèåíò_296-24);}.cls-43{fill:url(#Áåçûìÿííûé_ãðàäèåíò_296-25);}.cls-44{fill:url(#Áåçûìÿííûé_ãðàäèåíò_260-2);}.cls-45{fill:url(#Áåçûìÿííûé_ãðàäèåíò_3-3);}.cls-46{fill:#5955b1;}.cls-47{fill:url(#Áåçûìÿííûé_ãðàäèåíò_296-26);}.cls-48{fill:url(#Áåçûìÿííûé_ãðàäèåíò_296-27);}.cls-49{fill:url(#Áåçûìÿííûé_ãðàäèåíò_296-28);}.cls-50{fill:url(#Áåçûìÿííûé_ãðàäèåíò_296-29);}.cls-51{fill:url(#Áåçûìÿííûé_ãðàäèåíò_296-30);}.cls-52{fill:url(#Áåçûìÿííûé_ãðàäèåíò_296-31);}.cls-53{fill:url(#Áåçûìÿííûé_ãðàäèåíò_296-32);}.cls-54{fill:url(#Áåçûìÿííûé_ãðàäèåíò_296-33);}.cls-55{fill:url(#Áåçûìÿííûé_ãðàäèåíò_296-34);}.cls-56{fill:url(#Áåçûìÿííûé_ãðàäèåíò_296-35);}.cls-57{fill:url(#Áåçûìÿííûé_ãðàäèåíò_260-3);}.cls-58,.cls-59{mix-blend-mode:screen;}.cls-58{fill:url(#Áåçûìÿííûé_ãðàäèåíò_86);}.cls-59{fill:url(#Áåçûìÿííûé_ãðàäèåíò_86-2);}</style><clipPath id="clip-path" transform="translate(-556.6 22)"><rect class="cls-1" width="1000" height="400"/></clipPath><linearGradient id="Áåçûìÿííûé_ãðàäèåíò_3" x1="676.23" y1="363.39" x2="676.23" y2="-22" gradientUnits="userSpaceOnUse"><stop offset="0" stop-color="#310a48"/><stop offset="0.29" stop-color="#310a4d"/><stop offset="0.61" stop-color="#310b5a"/><stop offset="0.63" stop-color="#310b5b"/><stop offset="0.84" stop-color="#45196d"/><stop offset="1" stop-color="#57257d"/></linearGradient><linearGradient id="Áåçûìÿííûé_ãðàäèåíò_296" x1="672.85" y1="289.75" x2="779.58" y2="289.75" gradientUnits="userSpaceOnUse"><stop offset="0" stop-color="#745ebd"/><stop offset="1" stop-color="#542e77"/></linearGradient><linearGradient id="Áåçûìÿííûé_ãðàäèåíò_296-2" x1="587.6" y1="114.5" x2="795.84" y2="114.5" xlink:href="#Áåçûìÿííûé_ãðàäèåíò_296"/><linearGradient id="Áåçûìÿííûé_ãðàäèåíò_296-3" x1="116.25" y1="334.77" x2="213.25" y2="334.77" xlink:href="#Áåçûìÿííûé_ãðàäèåíò_296"/><linearGradient id="Áåçûìÿííûé_ãðàäèåíò_296-4" x1="701.85" y1="185.5" x2="772.52" y2="185.5" xlink:href="#Áåçûìÿííûé_ãðàäèåíò_296"/><linearGradient id="Áåçûìÿííûé_ãðàäèåíò_296-5" x1="187" y1="255.56" x2="222.98" y2="255.56" xlink:href="#Áåçûìÿííûé_ãðàäèåíò_296"/><linearGradient id="Áåçûìÿííûé_ãðàäèåíò_296-6" x1="112.75" y1="123.08" x2="227.58" y2="123.08" xlink:href="#Áåçûìÿííûé_ãðàäèåíò_296"/><linearGradient id="Áåçûìÿííûé_ãðàäèåíò_296-7" x1="669.35" y1="68" x2="795.52" y2="68" xlink:href="#Áåçûìÿííûé_ãðàäèåíò_296"/><linearGradient id="Áåçûìÿííûé_ãðàäèåíò_296-8" x1="80.58" y1="49.38" x2="111.25" y2="49.38" xlink:href="#Áåçûìÿííûé_ãðàäèåíò_296"/><linearGradient id="Áåçûìÿííûé_ãðàäèåíò_296-9" x1="146.05" y1="131.09" x2="227.58" y2="131.09" xlink:href="#Áåçûìÿííûé_ãðàäèåíò_296"/><linearGradient id="Áåçûìÿííûé_ãðàäèåíò_296-10" x1="174.5" y1="201.89" x2="201.91" y2="201.89" xlink:href="#Áåçûìÿííûé_ãðàäèåíò_296"/><linearGradient id="Áåçûìÿííûé_ãðàäèåíò_296-11" x1="156.58" y1="273.79" x2="175.75" y2="273.79" xlink:href="#Áåçûìÿííûé_ãðàäèåíò_296"/><linearGradient id="Áåçûìÿííûé_ãðàäèåíò_296-12" x1="105.75" y1="105.33" x2="122.29" y2="105.33" xlink:href="#Áåçûìÿííûé_ãðàäèåíò_296"/><radialGradient id="Áåçûìÿííûé_ãðàäèåíò_260" cx="149.37" cy="192.75" r="25.97" gradientUnits="userSpaceOnUse"><stop offset="0" stop-color="aqua"/><stop offset="1" stop-color="#0063ff"/></radialGradient><linearGradient id="Áåçûìÿííûé_ãðàäèåíò_3-2" x1="640.35" y1="359.42" x2="640.35" y2="237.7" xlink:href="#Áåçûìÿííûé_ãðàäèåíò_3"/><linearGradient id="Áåçûìÿííûé_ãðàäèåíò_296-13" x1="594.77" y1="299.23" x2="686.77" y2="299.23" xlink:href="#Áåçûìÿííûé_ãðàäèåíò_296"/><linearGradient id="Áåçûìÿííûé_ãðàäèåíò_296-14" x1="87.5" y1="315.78" x2="112.5" y2="315.78" xlink:href="#Áåçûìÿííûé_ãðàäèåíò_296"/><linearGradient id="Áåçûìÿííûé_ãðàäèåíò_296-15" x1="637.6" y1="280.03" x2="661.76" y2="280.03" xlink:href="#Áåçûìÿííûé_ãðàäèåíò_296"/><linearGradient id="Áåçûìÿííûé_ãðàäèåíò_296-16" x1="96.15" y1="354.13" x2="120.94" y2="354.13" xlink:href="#Áåçûìÿííûé_ãðàäèåíò_296"/><linearGradient id="Áåçûìÿííûé_ãðàäèåíò_296-17" x1="86.42" y1="371.24" x2="115" y2="371.24" xlink:href="#Áåçûìÿííûé_ãðàäèåíò_296"/><linearGradient id="Áåçûìÿííûé_ãðàäèåíò_296-18" x1="116.67" y1="308.4" x2="130.17" y2="308.4" xlink:href="#Áåçûìÿííûé_ãðàäèåíò_296"/><linearGradient id="Áåçûìÿííûé_ãðàäèåíò_296-19" x1="52.67" y1="333.76" x2="87.5" y2="333.76" xlink:href="#Áåçûìÿííûé_ãðàäèåíò_296"/><linearGradient id="Áåçûìÿííûé_ãðàäèåíò_296-20" x1="56.84" y1="356.11" x2="96.67" y2="356.11" xlink:href="#Áåçûìÿííûé_ãðàäèåíò_296"/><linearGradient id="Áåçûìÿííûé_ãðàäèåíò_296-21" x1="108.55" y1="370.81" x2="115" y2="370.81" xlink:href="#Áåçûìÿííûé_ãðàäèåíò_296"/><linearGradient id="Áåçûìÿííûé_ãðàäèåíò_296-22" x1="96.67" y1="356" x2="118.04" y2="356" xlink:href="#Áåçûìÿííûé_ãðàäèåíò_296"/><linearGradient id="Áåçûìÿííûé_ãðàäèåíò_321" x1="634.19" y1="294.59" x2="634.19" y2="237.7" gradientUnits="userSpaceOnUse"><stop offset="0" stop-color="#4d397a"/><stop offset="1" stop-color="#4b72ff"/></linearGradient><linearGradient id="Áåçûìÿííûé_ãðàäèåíò_296-23" x1="108.67" y1="297.49" x2="112.5" y2="297.49" xlink:href="#Áåçûìÿííûé_ãðàäèåíò_296"/><linearGradient id="Áåçûìÿííûé_ãðàäèåíò_296-24" x1="90.47" y1="342.6" x2="100.84" y2="342.6" xlink:href="#Áåçûìÿííûé_ãðàäèåíò_296"/><linearGradient id="Áåçûìÿííûé_ãðàäèåíò_296-25" x1="86.42" y1="321.15" x2="130.17" y2="321.15" xlink:href="#Áåçûìÿííûé_ãðàäèåíò_296"/><radialGradient id="Áåçûìÿííûé_ãðàäèåíò_260-2" cx="92.86" cy="255.97" r="16.61" xlink:href="#Áåçûìÿííûé_ãðàäèåíò_260"/><linearGradient id="Áåçûìÿííûé_ãðàäèåíò_3-3" x1="230.39" y1="387.65" x2="230.39" y2="228.17" xlink:href="#Áåçûìÿííûé_ãðàäèåíò_3"/><linearGradient id="Áåçûìÿííûé_ãðàäèåíò_296-26" x1="726.21" y1="285.9" x2="847.77" y2="285.9" xlink:href="#Áåçûìÿííûé_ãðàäèåíò_296"/><linearGradient id="Áåçûìÿííûé_ãðàäèåíò_296-27" x1="187" y1="303.05" x2="266.75" y2="303.05" xlink:href="#Áåçûìÿííûé_ãðàäèåíò_296"/><linearGradient id="Áåçûìÿííûé_ãðàäèåíò_296-28" x1="213.25" y1="384.33" x2="239.24" y2="384.33" xlink:href="#Áåçûìÿííûé_ãðàäèåíò_296"/><linearGradient id="Áåçûìÿííûé_ãðàäèåíò_296-29" x1="211.25" y1="332.93" x2="264.5" y2="332.93" xlink:href="#Áåçûìÿííûé_ãðàäèåíò_296"/><linearGradient id="Áåçûìÿííûé_ãðàäèåíò_296-30" x1="188.25" y1="323.9" x2="254.75" y2="323.9" xlink:href="#Áåçûìÿííûé_ãðàäèåíò_296"/><linearGradient id="Áåçûìÿííûé_ãðàäèåíò_296-31" x1="232.25" y1="268.46" x2="256.25" y2="268.46" xlink:href="#Áåçûìÿííûé_ãðàäèåíò_296"/><linearGradient id="Áåçûìÿííûé_ãðàäèåíò_296-32" x1="283.75" y1="313.62" x2="291.16" y2="313.62" xlink:href="#Áåçûìÿííûé_ãðàäèåíò_296"/><linearGradient id="Áåçûìÿííûé_ãðàäèåíò_296-33" x1="188.25" y1="332.43" x2="235.37" y2="332.43" xlink:href="#Áåçûìÿííûé_ãðàäèåíò_296"/><linearGradient id="Áåçûìÿííûé_ãðàäèåíò_296-34" x1="190.67" y1="292.96" x2="232.38" y2="292.96" xlink:href="#Áåçûìÿííûé_ãðàäèåíò_296"/><linearGradient id="Áåçûìÿííûé_ãðàäèåíò_296-35" x1="237.58" y1="355.21" x2="285.25" y2="355.21" xlink:href="#Áåçûìÿííûé_ãðàäèåíò_296"/><radialGradient id="Áåçûìÿííûé_ãðàäèåíò_260-3" cx="283.02" cy="299.75" r="21.06" xlink:href="#Áåçûìÿííûé_ãðàäèåíò_260"/><radialGradient id="Áåçûìÿííûé_ãðàäèåíò_86" cx="616.21" cy="113.57" r="21.03" gradientTransform="matrix(0, 2.54, -2.75, 0, 1019.4, -1387.15)" gradientUnits="userSpaceOnUse"><stop offset="0.01" stop-color="#474dff"/><stop offset="0.13" stop-color="#3c41d7"/><stop offset="0.37" stop-color="#272a8b"/><stop offset="0.59" stop-color="#16184f"/><stop offset="0.77" stop-color="#0a0b24"/><stop offset="0.92" stop-color="#03030a"/><stop offset="1"/></radialGradient><radialGradient id="Áåçûìÿííûé_ãðàäèåíò_86-2" cx="670.99" cy="81.02" r="18.62" gradientTransform="matrix(0, 2.54, -2.75, 0, 1061.75, -1426.42)" xlink:href="#Áåçûìÿííûé_ãðàäèåíò_86"/></defs><g class="cls-2"><g id="rock_03"><g class="cls-3"><path class="cls-4" d="M795.84-20.07c-.33,11.73-12,72.74-12,72.74L784.18,78,773.52,90.67s.66,25-1,29.33-9,26.33-9,26.33l-7.34,74.34,10.92-5.42,7.22.87,5.26.63L762.85,249l-3.42,13.17-14.58,56.16s14,27,19,32.34l6,3.33-.56,7.79-.11,1.6H769l-65.28-2.75-30.82-1.3,3.75-2.83,11.25-38.17,7.25-1.83v-3.75s9-42.75,16.5-59l3.75-2.75h-4.69s-9.14-21.33-10.81-34.17l8.83-8L692,180.17l.16-5.84L697,163.5l4.83-5.83-.33-.18-.31-.17-.19-.1-.37-.2c-4.14-2.26-17.66-9.65-19.23-10.32l-.07,0c-1.33-.5-6.33,0-6.33,0l-72.17-9-3.17-2.17H566.85l-10.25-7.75,6.25-13.5-.25-4,25-17.5L605.6,65l8.5-4.25,7.5-18.5,29-26,17.25,3.25s56-36.83,84.67-41.5l13.33,4,2.51-.34.81-.11h0l3-.41,9.54-1.29,3.48-.47,4.88-.66,2.24-.3.77-.1.9-.12.75-.1.77-.1C795.78-22,795.88-21.34,795.84-20.07Z" transform="translate(-556.6 22)"/><path class="cls-5" d="M763.85,350.67l6,3.33-.56,7.79-.34,1.59-96.1-4.05,3.75-2.83,11.25-38.17c-1,7.83,6.75,24.84,6.75,24.84L724.1,353l5.27-4.51L708.6,318.33l-13.5-1.83v-3.75s9-42.75,16.5-59L731,256l12.63-16.08L753.85,233l20.47-16.88,5.26.63L762.85,249l-18,69.33S758.85,345.33,763.85,350.67Z" transform="translate(-556.6 22)"/><path class="cls-6" d="M784.18,78,773.52,90.67s.66,25-1,29.33-9,26.33-9,26.33l-7.34,74.34-2.58,5.08L732.35,251H710.66s-9.14-21.33-10.81-34.17l5.25-.08L734.6,227l15.75-20.83,1-3.92-22,6.58H708.68L692,180.17l38.08-6.67,24.25-25.75-20,10.25-20,5.75-12.5-6.08-.33-.18-.31-.17-.19-.1-.37-.2L681.42,146.7l-.07,0H675l-5.84-13.17-1.66-6.67-43.09-15.66-13.25,15.66-8.33,10.84-3.17-2.17,13.67-12.17,7-8.5L605,88.67,587.6,92.75l18.25-12.58L632.35,73l30-17.5,4.5-17L696.35,15l56.17-37,13.33,4,2.51-.34.81-.11h0l3-.41,9.54-1.29,3.48-.47,7.89-1.06.9-.12.75-.1.77-.1.32,1.93c-.33,11.73-12,72.74-12,72.74Z" transform="translate(-556.6 22)"/><polygon class="cls-7" points="120 378.5 129.75 377.92 138 365.17 167.5 375 172.77 370.49 152 340.33 138.5 338.5 138.5 334.75 168.38 334.75 174.38 334.75 202.83 284.17 188.25 340.33 182.38 350 174.25 344.75 171.75 345.88 179.13 371.43 202.83 374.05 207.25 372.67 213.25 376 212.35 385.38 147.07 382.63 116.25 381.33 120 378.5"/><path class="cls-8" d="M772.52,120c-1.67,4.33-9,26.33-9,26.33l-7.34,74.34-2.58,5.08L732.35,251l2.25-24,15.75-20.83,1-3.92-22,6.58H708.68l22.42-1.66,4.25-13.67,12.5-6.67,1.93-34.22,4.57-4.86-20,10.25-20,5.75-12.5-6.08,13.33,3.83,19-4.38,18.94-13Z" transform="translate(-556.6 22)"/><polygon class="cls-9" points="187 261.92 197.5 273 206.25 271 222.98 238.75 217.72 238.12 187 261.92"/><polygon class="cls-10" points="227.58 100 218.25 96 196.58 100 178.25 105 174.58 105 176.25 101.83 151.92 111.5 133.75 127.17 128.92 129 118.25 142 112.75 150.17 128.75 132.17 143.25 123.08 179.42 110.17 215.92 106.17 216.92 112.67 227.58 100"/><polygon class="cls-11" points="0 149.75 31 123.9 48.42 110.67 31 114.75 6.25 136.25 0 149.75"/><polygon class="cls-11" points="145.25 179.67 140.42 185.5 135.58 196.33 135.42 202.17 173.5 195.5 177.75 180 157.75 185.75 145.25 179.67"/><polygon class="cls-12" points="57.5 82.75 124.92 39 178.3 11.61 105.58 61.67 57.5 82.75"/><path class="cls-13" d="M783.85,52.67,795.52-22l-29.67,4-13.33-4L728,60.75,701.85,88.67l-1.24,7.65-10.26,8.85L685.52,107l-16.17,21.17,5.67,18.5h6.33l1.75-24.17,24.33-21.42,34.92-4.76,10.75,47.85-18.94,13,.19.88,20-10.25,10.86-6.46L772.52,120s1.5-20.49,1-29.33L784.18,78ZM708.52,89.5V86L730,63.07,753.18,78Z" transform="translate(-556.6 22)"/><polygon class="cls-14" points="152.08 230.83 143.25 238.83 148.5 238.75 172.75 230.83 152.08 230.83"/><polygon class="cls-15" points="199.58 242.67 187 261.92 213.25 238.83 210.5 237.25 199.58 242.67"/><polygon class="cls-16" points="57.12 161.03 70.9 134.29 99.58 95.57 183.37 42.4 234.99 31.96 230.56 56.91 182.92 51 164.75 64.33 106.58 104 83.75 138.96 76.57 163.45 57.12 161.03"/><polygon class="cls-17" points="83.33 164.29 92.13 142 135.12 104.88 174.26 73.17 226.88 77.5 227.58 82.75 180.59 75.17 173.08 76 129.92 110.67 95.42 144 87.75 164.85 83.33 164.29"/><polygon class="cls-12" points="92.77 85.08 110.25 60.5 105.75 77.5 92.77 85.08"/><polygon class="cls-12" points="65 64.25 80.58 60.5 94 38.25 65 64.25"/><polygon class="cls-18" points="94 38.25 111.25 41.5 91.79 60.5 80.58 60.5 94 38.25"/><polygon class="cls-16" points="129.75 171 170.16 159.67 192.29 147.45 217.05 123.9 217.05 137.68 195.04 159.67 173.4 176.09 155.46 178.25 138.58 176.09 129.75 171"/><polygon class="cls-16" points="147.52 297.82 169.61 297.82 190.67 294.5 201.79 288.16 197.54 304.53 180.85 308.31 152.58 308.31 146.05 305.45 147.52 297.82"/><polygon class="cls-16" points="143.84 311.75 151.92 312.37 179.91 312.37 196.25 308.31 196.04 310.34 182.25 313.62 168.08 317.67 143.25 314.12 143.84 311.75"/><path class="cls-19" d="M711.6,253.75,731,256l-1.62,51.59-8,4.52-26.25.64S706.35,268.5,711.6,253.75Z" transform="translate(-556.6 22)"/><polygon class="cls-16" points="122.34 370.55 134 354.96 160.02 351.97 162.08 354 134.98 356 121.03 375 122.34 370.55"/><polygon class="cls-16" points="126.62 356.04 132.07 348.33 156.44 346.77 152.73 341.4 131.18 342.41 126.62 356.04"/><polygon class="cls-15" points="170.09 246.25 182.55 242.98 177.75 251.67 170.09 246.25"/><polygon class="cls-20" points="146.05 122.08 150.84 123.08 185.75 118.32 196.5 166.17 191.5 132.75 189.13 122.13 190.5 111.75 215.92 106.17 216.92 112.67 227.58 100 218.25 96 178.25 105 174.58 105 151.13 112.25 146.05 122.08"/><polygon class="cls-21" points="174.5 229.17 178.75 215.5 191.25 208.83 194.58 202.04 193.18 174.61 196 211.25 201.91 219.04 198 224 194.75 224.25 174.5 229.17"/><polygon class="cls-22" points="158.75 273 156.59 274.59 175.75 273 158.75 273"/><polygon class="cls-23" points="110.92 148.83 112.75 137.68 106.25 80.25 105.75 77.5 110.25 60.5 109.13 76.63 110.25 112.38 122.29 137.68 116.55 145.19 112.75 150.17 110.92 148.83"/><polygon class="cls-24" points="144.62 218 130.91 202.17 137.77 184.66 142.15 183.42 145.25 186.85 167.24 186.85 168.17 197.99 156.13 208.81 144.62 218"/><polygon class="cls-25" points="130.91 202.17 149.29 202.17 166.29 194.95 167.24 186.85 145.25 186.85 137.77 184.66 130.91 202.17"/><polygon class="cls-26" points="149.29 202.17 148.84 214.63 144.62 218 130.91 202.17 149.29 202.17"/><polygon class="cls-27" points="146.96 202.17 151.88 201.07 149.29 203.69 146.96 202.17"/><path class="cls-28" d="M673.27,335.7l-4.17,3.5h2.5l-5.82,19.22-20.84,1H620.1c3-8.11,12.67-19.56,12.67-19.56l20.5,1.5-39.83-8.83-10.69-.92c.16-2.75,5.19-10.41,5.19-10.41l-12-24.5a15.26,15.26,0,0,1-1.17-2.11,8.74,8.74,0,0,1-.83-2.89v-.2c0-2.71,3.32-13.64,21.67-26.8,18.84-13.5,46.5-27,51-27a23.3,23.3,0,0,1,7.84,1.33c1.66,8.83-1.17,33-1.17,33l8.17-2.67h3.66l0,.43,1.62,15.41C685.27,295.2,673.27,335.7,673.27,335.7Z" transform="translate(-556.6 22)"/><path class="cls-29" d="M686.77,285.2l-1.62-15.41-3.71-.43-8.17,19.17-13.66,17.65c.32-.79,10.71-26.27,13.66-34.15,0,0,2.83-24.17,1.17-33L660.1,264.7l-10.66,6.83L637.6,277.7v4.5l-24.33,10.66-18.5,1.73a15.26,15.26,0,0,0,1.17,2.11l12,24.5,2.83,5.66,19.67-1.08,13.66-9.58,3.84,6.16s-7.37,4.29-7.6,4.5c-.58.06-26.9,5.67-26.9,5.67l39.83,8.83.67,1.34-7.34,2.75-13.83-5.59s-9.67,11.45-12.67,19.56h18.95l26.73-1,5.82-19.22h-2.5l4.17-3.5S685.27,295.2,686.77,285.2Zm-47-2.34c1.58-5.08,14.67-12.61,14.67-12.61l14.66-5.05-3.83,12.91L655.1,285Z" transform="translate(-556.6 22)"/><polygon class="cls-30" points="87.5 338.2 90.47 342.97 100.53 340.83 98.5 306.95 108.67 300.11 112.5 287.2 111.26 307.78 103.01 328.18 100.84 344.36 91.34 344.36 87.5 338.2"/><path class="cls-31" d="M637.6,282.2l3.17,13.16-1-12.5s4.28-6.58,14.67-12.61l7.32-2.52-1.66-3-10.66,6.83L637.6,277.7Z" transform="translate(-556.6 22)"/><polygon class="cls-32" points="96.15 363.25 106.86 361.2 120.94 342.97 116.67 357.7 112.5 361.2 103.61 365.28 97.34 364.7 96.15 363.25"/><polygon class="cls-33" points="86.42 381.27 90 367.45 108.55 365.28 115 361.2 109.18 380.42 86.42 381.27"/><polygon class="cls-34" points="116.67 310.53 125.81 325.44 130.17 307.2 128.55 291.79 124.84 291.36 116.67 310.53"/><polygon class="cls-35" points="52.67 345.86 59.05 347.59 72.92 346.73 86.92 337.43 84.17 318.66 87.5 338.2 73.84 347.78 54.17 348.86 52.67 345.86"/><polygon class="cls-36" points="83.74 348.86 90.34 360.65 96.67 363.36 56.84 354.53 83.74 348.86"/><polygon class="cls-37" points="108.55 365.28 109.18 380.42 115 361.2 108.55 365.28"/><polygon class="cls-38" points="96.67 363.36 97.34 364.7 103.61 365.28 112.5 361.2 118.04 346.73 106.86 361.2 96.67 363.36"/><polygon class="cls-15" points="94.98 306.47 100.81 305.4 98.61 308.75 94.98 306.47"/><polygon class="cls-15" points="52.67 315.24 59.33 313.7 56.84 315.78 52.67 315.24"/><polygon class="cls-15" points="85.28 365.54 93.08 367.09 89.52 369.31 85.28 365.54"/><path class="cls-39" d="M674.44,239,660.1,264.7l-22.5,13v4.5l-21.67,9.5-6.66,1.53-14.5,1.36-.83-2.89v-.2c0-2.71,3.32-13.64,21.67-26.8,18.84-13.5,46.5-27,51-27A23.3,23.3,0,0,1,674.44,239Z" transform="translate(-556.6 22)"/><polygon class="cls-40" points="43.75 327.7 56.84 328.46 64.34 327.36 84.17 318.66 99.12 317.36 110.34 305.4 111.77 299.26 118 278.91 116.67 294.03 111.26 307.78 99.74 327.7 85.28 325.18 66.34 330.8 56 334.19 45.44 330.8 43.75 327.7"/><polygon class="cls-40" points="49.01 338.44 58.35 341.78 68.8 340.11 77.58 337.43 86.42 330.78 99.93 330.78 103.01 328.18 102.78 329.92 100 332.02 86.42 331.86 78.42 338.28 69.05 340.97 58.11 342.53 49.67 339.78 49.01 338.44"/><polygon class="cls-40" points="69.29 357.29 87.74 356 107.36 348.86 120.04 328.18 123.8 322.16 128.9 312.53 127.55 319.16 124.98 324.09 118.04 341.53 108.55 350.99 99.1 356.11 89.18 358.58 73.8 358.58 69.29 357.29"/><polygon class="cls-41" points="108.67 300.11 111.26 307.78 112.5 287.2 108.67 300.11"/><polygon class="cls-42" points="100.53 340.83 100.84 344.36 91.34 344.36 90.47 342.97 100.53 340.83"/><polygon class="cls-43" points="86.42 381.27 89.52 369.31 93.08 367.09 108.55 365.28 103.61 365.28 106.86 361.2 100.84 344.36 100.53 340.83 98.61 308.75 100.81 305.4 108.67 300.11 112.5 287.2 105.16 289.73 97.84 292.25 99.1 288.99 103.5 286.7 117.84 261.03 116.67 294.03 111.26 307.78 103.01 328.18 116.67 310.53 124.84 291.36 128.5 291.36 130.17 308.4 116.67 357.7 112.5 361.2 115 361.2 109.18 380.42 86.42 381.27"/><polygon class="cls-44" points="84.72 270.87 84.17 248.38 97.83 231.03 102.49 241.69 97.83 266.14 90.47 270.87 84.72 270.87"/><polygon class="cls-25" points="84.17 248.38 99.1 242.59 97.83 231.03 84.17 248.38"/><polygon class="cls-26" points="90.47 270.87 99.1 242.59 84.17 248.38 84.72 270.87 90.47 270.87"/><polygon class="cls-27" points="99.1 241.33 97.83 243.07 98.63 244.11 99.1 242.59 99.1 241.33"/><polygon class="cls-45" points="169.62 299 213.25 249.17 251.38 228.17 256.25 243.13 256.25 253.96 266.75 258.13 239.96 305.4 251.38 305.4 283.75 297.82 291.16 301.05 285.25 329.41 264.75 354.96 239.24 381.01 239.24 387.65 182.25 385.63 204.99 360.48 211.25 359.85 211.25 354.96 188.25 340.33 178.58 307.91 180.59 303 169.62 299"/><polygon class="cls-46" points="169.61 299 183.82 302.47 190.67 301.75 232.25 284.17 254 246.25 251.38 228.17 213.25 249.17 169.61 299"/><path class="cls-47" d="M808,283.39H796.56l26.79-47.27L812.85,232V221.12l-4.87-15,2.62,18.08-21.75,37.92L743.6,281.25,726.21,277l11,4,10,3,42.2-15.33-36.86,20.25-17.31-3,9.67,32.42,23,14.63v4.89l28-4.62,18.39-19.61,11.37-.85-31.42,28.56-27.08-.41-5.51-2.44-22.74,25.15,57,2V359L821.35,333l20.5-25.55,5.92-28.36-7.42-3.23Zm32.37,14.36-22.17,9.66L822,282.83l18.33-7Z" transform="translate(-556.6 22)"/><polygon class="cls-48" points="251.38 305.4 264.5 306 257.94 329.41 242.5 351.75 211.25 359.85 211.25 354.96 188.25 340.33 224.5 327.25 232.75 290.67 190.55 306 187 303.25 232.25 284.17 254 246.25 256.25 253.96 244.75 279.25 266.75 258.13 239.96 305.4 251.38 305.4"/><polygon class="cls-49" points="239.24 381.01 213.25 386.73 239.24 387.65 239.24 381.01"/><polygon class="cls-50" points="211.25 354.96 241.58 351 247.92 342.42 257.33 329.41 264.5 306 257.94 329.41 242.5 351.75 211.25 359.85 211.25 354.96"/><polygon class="cls-51" points="254.75 306 239.25 328.25 208.88 340.33 191.52 342.41 188.25 340.33 224.5 327.25 235.38 324.53 239.96 305.4 254.75 306"/><polygon class="cls-17" points="217.04 246.95 178.3 300.74 185.98 304.22 182.36 308.21 190.99 339.15 197.67 341.41 216.24 354.04 216.24 358.34 218.35 357.79 218.69 353.7 200.57 340.95 194.32 337.82 187.57 310.62 193.82 312.07 199.38 336.13 206.9 333.41 205.16 305.7 208.45 298.7 207.45 294.2 232.57 258.2 230.71 258.44 211.57 283.86 207.41 283.86 241.91 233.26 230.71 239.43 206.05 272.7 203.07 272.7 221.82 244.32 217.04 246.95"/><polygon class="cls-52" points="232.75 290.67 232.25 284.17 254 246.25 256.25 253.96 244.75 279.25 232.75 290.67"/><polygon class="cls-53" points="283.75 319.75 285.25 329.41 291.16 301.05 283.75 297.82 283.75 319.75"/><polygon class="cls-12" points="183.82 302.47 190.67 301.75 188.65 304.53 183.82 302.47"/><polygon class="cls-15" points="210.5 362.92 211.25 367.17 226.25 363.16 210.5 362.92"/><polygon class="cls-11" points="180.58 303 190.55 306 207.13 299.98 211.25 302.48 195.89 310.92 178.58 307.91 180.58 303"/><polygon class="cls-40" points="218.84 329.11 227.81 332.62 241.91 350.7 243.87 348.03 232.57 330.73 222.52 327.78 224.59 295.03 223.3 293.92 224.07 287.45 253.54 239.82 253.54 237.82 221.82 288.4 220.25 295.03 223.19 295.8 218.84 329.11"/><polygon class="cls-54" points="188.25 340.33 208.88 340.33 232.25 329.41 235.38 324.53 222.2 328.08 188.25 340.33"/><polygon class="cls-55" points="190.67 301.75 209.78 296.1 232.38 285.85 232.25 284.17 190.67 301.75"/><polygon class="cls-40" points="198.94 367.17 219.38 371.43 242.63 368.13 258.85 360.98 254.25 365.68 241.88 369.25 218.37 373.5 194.91 371.63 198.94 367.17"/><polygon class="cls-56" points="237.58 363.33 239.24 381.01 285.25 329.41 269 334.77 237.58 363.33"/><polygon class="cls-12" points="188.5 309.64 200.65 308.31 195.75 313.38 188.5 309.64"/><polygon class="cls-57" points="264.5 302.47 286.77 286.34 303.51 284.27 298.52 299.98 289.5 309 283.75 305.45 268.94 309 264.5 302.47"/><polygon class="cls-26" points="264.5 302.47 268.94 309 296.63 292.96 286.77 286.34 264.5 302.47"/><polygon class="cls-25" points="303.51 284.27 296.63 292.96 286.77 286.34 303.51 284.27"/><polygon class="cls-27" points="294.4 291.46 298.21 290.96 296.63 292.96 294.4 291.46"/><ellipse class="cls-58" cx="706.92" cy="176.51" rx="57.88" ry="53.38" transform="translate(-574.19 275.85) rotate(-20.11)"/><ellipse class="cls-59" cx="838.82" cy="276.23" rx="51.23" ry="47.24" transform="translate(-600.44 327.29) rotate(-20.11)"/></g></g></g></svg>