<svg xmlns="http://www.w3.org/2000/svg" xmlns:xlink="http://www.w3.org/1999/xlink" viewBox="0 0 320.19 182.19"><defs><style>.cls-1{fill:none;}.cls-2{isolation:isolate;}.cls-3{clip-path:url(#clip-path);}.cls-10,.cls-11,.cls-12,.cls-13,.cls-14,.cls-15,.cls-16,.cls-17,.cls-18,.cls-19,.cls-20,.cls-21,.cls-22,.cls-23,.cls-24,.cls-25,.cls-26,.cls-27,.cls-28,.cls-29,.cls-30,.cls-31,.cls-32,.cls-33,.cls-34,.cls-35,.cls-36,.cls-37,.cls-38,.cls-39,.cls-4,.cls-40,.cls-41,.cls-5,.cls-6,.cls-7,.cls-8,.cls-9{fill-rule:evenodd;}.cls-4{fill:url(#Áåçûìÿííûé_ãðàäèåíò_357);}.cls-12,.cls-13,.cls-14,.cls-15,.cls-17,.cls-18,.cls-19,.cls-20,.cls-21,.cls-22,.cls-23,.cls-24,.cls-25,.cls-27,.cls-28,.cls-29,.cls-31,.cls-34,.cls-35,.cls-36,.cls-37,.cls-39,.cls-40,.cls-41,.cls-5,.cls-7,.cls-8,.cls-9{opacity:0.5;}.cls-10,.cls-12,.cls-13,.cls-14,.cls-15,.cls-16,.cls-17,.cls-18,.cls-19,.cls-20,.cls-21,.cls-22,.cls-23,.cls-24,.cls-25,.cls-28,.cls-29,.cls-31,.cls-34,.cls-35,.cls-36,.cls-37,.cls-39,.cls-40,.cls-41,.cls-5,.cls-7,.cls-8,.cls-9{mix-blend-mode:multiply;}.cls-5{fill:url(#Áåçûìÿííûé_ãðàäèåíò_296);}.cls-6{fill:url(#Áåçûìÿííûé_ãðàäèåíò_357-2);}.cls-7{fill:url(#Áåçûìÿííûé_ãðàäèåíò_296-2);}.cls-8{fill:url(#Áåçûìÿííûé_ãðàäèåíò_296-3);}.cls-9{fill:url(#Áåçûìÿííûé_ãðàäèåíò_296-4);}.cls-10{opacity:0.87;fill:url(#Áåçûìÿííûé_ãðàäèåíò_296-5);}.cls-11{fill:url(#Áåçûìÿííûé_ãðàäèåíò_274);}.cls-12{fill:url(#Áåçûìÿííûé_ãðàäèåíò_296-6);}.cls-13{fill:url(#Áåçûìÿííûé_ãðàäèåíò_296-7);}.cls-14{fill:url(#Áåçûìÿííûé_ãðàäèåíò_296-8);}.cls-15{fill:url(#Áåçûìÿííûé_ãðàäèåíò_296-9);}.cls-16{opacity:0.2;fill:url(#Áåçûìÿííûé_ãðàäèåíò_296-10);}.cls-17{fill:url(#Áåçûìÿííûé_ãðàäèåíò_296-11);}.cls-18{fill:url(#Áåçûìÿííûé_ãðàäèåíò_296-12);}.cls-19{fill:url(#Áåçûìÿííûé_ãðàäèåíò_296-13);}.cls-20{fill:url(#Áåçûìÿííûé_ãðàäèåíò_296-14);}.cls-21{fill:url(#Áåçûìÿííûé_ãðàäèåíò_296-15);}.cls-22{fill:url(#Áåçûìÿííûé_ãðàäèåíò_296-16);}.cls-23{fill:url(#Áåçûìÿííûé_ãðàäèåíò_296-17);}.cls-24{fill:url(#Áåçûìÿííûé_ãðàäèåíò_296-18);}.cls-25{fill:url(#Áåçûìÿííûé_ãðàäèåíò_296-20);}.cls-26{fill:#93839c;mix-blend-mode:soft-light;}.cls-27{fill:#5955b1;}.cls-28{fill:url(#Áåçûìÿííûé_ãðàäèåíò_296-21);}.cls-29{fill:url(#Áåçûìÿííûé_ãðàäèåíò_296-22);}.cls-30{fill:#503e7f;}.cls-31{fill:url(#Áåçûìÿííûé_ãðàäèåíò_296-23);}.cls-32{fill:url(#Áåçûìÿííûé_ãðàäèåíò_2);}.cls-33{fill:url(#Áåçûìÿííûé_ãðàäèåíò_357-3);}.cls-34{fill:url(#Áåçûìÿííûé_ãðàäèåíò_296-24);}.cls-35{fill:url(#Áåçûìÿííûé_ãðàäèåíò_296-25);}.cls-36{fill:url(#Áåçûìÿííûé_ãðàäèåíò_296-26);}.cls-37{fill:url(#Áåçûìÿííûé_ãðàäèåíò_296-27);}.cls-38{fill:url(#Áåçûìÿííûé_ãðàäèåíò_357-4);}.cls-39{fill:url(#Áåçûìÿííûé_ãðàäèåíò_296-28);}.cls-40{fill:url(#Áåçûìÿííûé_ãðàäèåíò_296-29);}.cls-41{fill:url(#Áåçûìÿííûé_ãðàäèåíò_296-30);}</style><clipPath id="clip-path" transform="translate(-215.39 -154.09)"><rect class="cls-1" width="1000" height="400"/></clipPath><linearGradient id="Áåçûìÿííûé_ãðàäèåíò_357" x1="444.93" y1="241.15" x2="444.93" y2="225.82" gradientUnits="userSpaceOnUse"><stop offset="0" stop-color="#0f0059"/><stop offset="1" stop-color="#633b78"/></linearGradient><linearGradient id="Áåçûìÿííûé_ãðàäèåíò_296" x1="433.76" y1="233.49" x2="456.09" y2="233.49" gradientUnits="userSpaceOnUse"><stop offset="0" stop-color="#745ebd"/><stop offset="1" stop-color="#542e77"/></linearGradient><linearGradient id="Áåçûìÿííûé_ãðàäèåíò_357-2" x1="499.92" y1="204.42" x2="499.92" y2="154.08" xlink:href="#Áåçûìÿííûé_ãðàäèåíò_357"/><linearGradient id="Áåçûìÿííûé_ãðàäèåíò_296-2" x1="464.26" y1="179.25" x2="535.59" y2="179.25" xlink:href="#Áåçûìÿííûé_ãðàäèåíò_296"/><linearGradient id="Áåçûìÿííûé_ãðàäèåíò_296-3" x1="477.26" y1="179" x2="535.59" y2="179" xlink:href="#Áåçûìÿííûé_ãðàäèåíò_296"/><linearGradient id="Áåçûìÿííûé_ãðàäèåíò_296-4" x1="253.97" y1="25.96" x2="265.53" y2="25.96" xlink:href="#Áåçûìÿííûé_ãðàäèåíò_296"/><linearGradient id="Áåçûìÿííûé_ãðàäèåíò_296-5" x1="0" y1="179.52" x2="189.68" y2="179.52" xlink:href="#Áåçûìÿííûé_ãðàäèåíò_296"/><linearGradient id="Áåçûìÿííûé_ãðàäèåíò_274" x1="328.12" y1="329.97" x2="328.12" y2="162.66" gradientUnits="userSpaceOnUse"><stop offset="0" stop-color="#0f1659"/><stop offset="1" stop-color="#572c78"/></linearGradient><linearGradient id="Áåçûìÿííûé_ãðàäèåíò_296-6" x1="77.16" y1="28.09" x2="200.01" y2="28.09" xlink:href="#Áåçûìÿííûé_ãðàäèåíò_296"/><linearGradient id="Áåçûìÿííûé_ãðàäèåíò_296-7" x1="42.46" y1="58.24" x2="84.6" y2="58.24" xlink:href="#Áåçûìÿííûé_ãðàäèåíò_296"/><linearGradient id="Áåçûìÿííûé_ãðàäèåíò_296-8" x1="90.53" y1="160.11" x2="120.77" y2="160.11" xlink:href="#Áåçûìÿííûé_ãðàäèåíò_296"/><linearGradient id="Áåçûìÿííûé_ãðàäèåíò_296-9" x1="240.84" y1="232.92" x2="415.41" y2="232.92" xlink:href="#Áåçûìÿííûé_ãðàäèåíò_296"/><linearGradient id="Áåçûìÿííûé_ãðàäèåíò_296-10" x1="127.05" y1="36.23" x2="185.8" y2="36.23" xlink:href="#Áåçûìÿííûé_ãðàäèåíò_296"/><linearGradient id="Áåçûìÿííûé_ãðàäèåíò_296-11" x1="307.45" y1="238.91" x2="415.41" y2="238.91" xlink:href="#Áåçûìÿííûé_ãðàäèåíò_296"/><linearGradient id="Áåçûìÿííûé_ãðàäèåíò_296-12" x1="122.5" y1="112.08" x2="133.3" y2="112.08" xlink:href="#Áåçûìÿííûé_ãðàäèåíò_296"/><linearGradient id="Áåçûìÿííûé_ãðàäèåíò_296-13" x1="120.77" y1="134.47" x2="136.98" y2="134.47" xlink:href="#Áåçûìÿííûé_ãðàäèåíò_296"/><linearGradient id="Áåçûìÿííûé_ãðàäèåíò_296-14" x1="98.83" y1="159.87" x2="120.77" y2="159.87" xlink:href="#Áåçûìÿííûé_ãðàäèåíò_296"/><linearGradient id="Áåçûìÿííûé_ãðàäèåíò_296-15" x1="113.94" y1="32.72" x2="148.1" y2="32.72" xlink:href="#Áåçûìÿííûé_ãðàäèåíò_296"/><linearGradient id="Áåçûìÿííûé_ãðàäèåíò_296-16" x1="86.69" y1="61.68" x2="143.13" y2="61.68" xlink:href="#Áåçûìÿííûé_ãðàäèåíò_296"/><linearGradient id="Áåçûìÿííûé_ãðàäèåíò_296-17" x1="128.46" y1="87.34" x2="180.8" y2="87.34" xlink:href="#Áåçûìÿííûé_ãðàäèåíò_296"/><linearGradient id="Áåçûìÿííûé_ãðàäèåíò_296-18" x1="92.05" y1="101.95" x2="127.79" y2="101.95" xlink:href="#Áåçûìÿííûé_ãðàäèåíò_296"/><linearGradient id="Áåçûìÿííûé_ãðàäèåíò_296-20" x1="94.43" y1="115.21" x2="200.01" y2="115.21" xlink:href="#Áåçûìÿííûé_ãðàäèåíò_296"/><linearGradient id="Áåçûìÿííûé_ãðàäèåíò_296-21" x1="57.05" y1="67.85" x2="84.6" y2="67.85" xlink:href="#Áåçûìÿííûé_ãðàäèåíò_296"/><linearGradient id="Áåçûìÿííûé_ãðàäèåíò_296-22" x1="33.02" y1="29.19" x2="42.46" y2="29.19" xlink:href="#Áåçûìÿííûé_ãðàäèåíò_296"/><linearGradient id="Áåçûìÿííûé_ãðàäèåíò_296-23" x1="84.6" y1="67.35" x2="99.98" y2="67.35" xlink:href="#Áåçûìÿííûé_ãðàäèåíò_296"/><radialGradient id="Áåçûìÿííûé_ãðàäèåíò_2" cx="404.21" cy="208.41" r="10.99" gradientUnits="userSpaceOnUse"><stop offset="0" stop-color="#07ffff"/><stop offset="0.04" stop-color="#6bfdff"/><stop offset="1" stop-color="#70bdff"/></radialGradient><linearGradient id="Áåçûìÿííûé_ãðàäèåíò_357-3" x1="263.46" y1="331.83" x2="263.46" y2="269.59" xlink:href="#Áåçûìÿííûé_ãðàäèåíò_357"/><linearGradient id="Áåçûìÿííûé_ãðàäèåíò_296-24" x1="234.62" y1="300.71" x2="292.29" y2="300.71" xlink:href="#Áåçûìÿííûé_ãðàäèåíò_296"/><linearGradient id="Áåçûìÿííûé_ãðàäèåíò_296-25" x1="58.54" y1="172.36" x2="68.82" y2="172.36" xlink:href="#Áåçûìÿííûé_ãðàäèåíò_296"/><linearGradient id="Áåçûìÿííûé_ãðàäèåíò_296-26" x1="58.69" y1="159.36" x2="76.9" y2="159.36" xlink:href="#Áåçûìÿííûé_ãðàäèåíò_296"/><linearGradient id="Áåçûìÿííûé_ãðàäèåíò_296-27" x1="39.63" y1="173.73" x2="49.76" y2="173.73" xlink:href="#Áåçûìÿííûé_ãðàäèåíò_296"/><linearGradient id="Áåçûìÿííûé_ãðàäèåíò_357-4" x1="331.91" y1="313.91" x2="331.91" y2="268.91" gradientTransform="matrix(1, -0.05, 0.05, 1, -13.51, 37.31)" xlink:href="#Áåçûìÿííûé_ãðàäèåíò_357"/><linearGradient id="Áåçûìÿííûé_ãðàäèåíò_296-28" x1="294" y1="291.41" x2="369.83" y2="291.41" gradientTransform="matrix(1, -0.05, 0.05, 1, -13.51, 37.31)" xlink:href="#Áåçûìÿííûé_ãðàäèåíò_296"/><linearGradient id="Áåçûìÿííûé_ãðàäèåíò_296-29" x1="118.94" y1="165.41" x2="142.41" y2="165.41" xlink:href="#Áåçûìÿííûé_ãðàäèåíò_296"/><linearGradient id="Áåçûìÿííûé_ãðàäèåíò_296-30" x1="102.75" y1="175.85" x2="112.12" y2="175.85" xlink:href="#Áåçûìÿííûé_ãðàäèåíò_296"/></defs><g class="cls-2"><g id="rock_02"><g class="cls-3"><path class="cls-4" d="M456.09,233.48l-2.33,2.67-12.34,5h-2.33c-3.67-3-5.33-9.17-5.33-9.17a14.12,14.12,0,0,1,5.33-6.16A55.71,55.71,0,0,1,456.09,233.48Z" transform="translate(-215.39 -154.09)"/><path class="cls-5" d="M456.09,233.48l-2.33,2.67-12.34,5h-2.33c-3.67-3-5.33-9.17-5.33-9.17a14.12,14.12,0,0,1,5.33-6.16l-4,5.58,3.33,4h13.67Z" transform="translate(-215.39 -154.09)"/><path class="cls-6" d="M535.59,154.09v6.17s-12.33,20.33-22.33,32.5l-6.83,3-2.34,8s-6.28,1.39-11.5.17l-.67-.17-4.83-5h-5.33l-16.33-19.5-1.17-12.83S500.93,154.43,535.59,154.09Z" transform="translate(-215.39 -154.09)"/><path class="cls-7" d="M535.59,154.09v6.17s-12.33,20.33-22.33,32.5l-6.83,3-2.34,8s-6.28,1.39-11.5.17l-.67-.17-4.83-5h-5.33l-16.33-19.5-1.17-12.83,5.1,8,11.57,3.14-9.84.25,6.17,4.42,8.75-2.17,1.75-.83,41.5-16.5Z" transform="translate(-215.39 -154.09)"/><path class="cls-8" d="M477.26,182.26l1.17,7.66,3.33,8.84h5.33l5.5,5.16-.67-6.5,12.17-2.5,1.71,3,.63-2.13,6.83-3s19-25.84,22.33-32.5v-6.17l-6.33,8.67-36.5,17.33-5,1.5Z" transform="translate(-215.39 -154.09)"/><polygon class="cls-9" points="253.97 20.36 255.38 31.55 255.69 23.75 265.53 23.5 253.97 20.36"/><polygon class="cls-10" points="33.97 176.84 15.54 178.87 0 180.03 36.54 181.58 110.58 182.19 166.23 181.58 189.68 180.03 151.84 177.94 33.97 176.84"/><path class="cls-11" d="M396.64,195.57,395,200.19l20.4,15.19v2.83A74.94,74.94,0,0,1,396.2,234l-5.07,1.2-15,14.74,3.87,2.53-27.7,23.23,1.34,1.19-1.23,1.63-11.57,15.2-4.64,4.89-3.55,3.74-4.49,26.07-21.37,1.38-2.81.18,2-3.36,1.38-2.35L310,299.52l2.52-2.38-10.12-33.06,5.07-7.6S295.23,244.57,293.74,242c-1.12-1.91-4.11-6.19-5.5-8.17h0l-.74-1.06,9.9-6.4,5.29-3.42L300,217.61l-3.58,2.84-13.54,3.42-4.33,2.38-6.1-1.64L257.86,198.4l.8-4.28.23-1.23-1-5.36h-4.62s-6.7-2.42-9.16-7.67l-3.24-14.74s18.76-2.46,23.12-2.46,29,2.91,29,2.91l-.45-2.91s26.14,2.24,36.64,3.8,32.61,5.36,32.61,5.36,40.05-.07,53.61,3.65v1.79Z" transform="translate(-215.39 -154.09)"/><polygon class="cls-12" points="200.01 23.17 170.08 26.75 142.53 29.58 122.13 33.77 114.24 33.77 93.84 20.05 79.99 13.2 77.16 8.58 79.84 17.51 113.94 35.09 127.05 36.43 142.24 35.09 151.36 38.81 162.34 44.62 177.38 47.6 179.61 46.11 181.25 41.49 200.01 23.17"/><polygon class="cls-13" points="79.99 65.47 84.6 63.53 81.03 66.36 67.48 69.78 63.16 72.17 57.05 70.53 42.46 44.32 51.25 55.78 60.03 58.91 79.99 65.47"/><polygon class="cls-14" points="120.77 144.52 117.21 148.26 112.73 174.32 91.36 175.71 90.53 172.53 91.92 170.18 94.58 145.44 100.56 150.2 103.81 150.2 120.77 144.52"/><path class="cls-15" d="M415.41,218.21A74.94,74.94,0,0,1,396.2,234l-5.07,1.2-15,14.74-11.32-2.16-20.91,2.1,7.22,1.4H368.2L380,252.46l-27.7,23.23-5.36-.44L341,279.86l-9.83,3.58,14-1.65,7.25-3.28-11.57,15.2-4.64,4.89-5.63.92-12.22,1.19-5.81-3.57-10.12-33.06,3.13,3,21.22-2.68,13.92-6.25,8-5.66h-5.5l-5.81,1.34-17.13,4.32-10.43,1.49-2.37-3.13S295.23,244.57,293.74,242c-1.12-1.91-4.11-6.19-5.5-8.17l9.07,2.07,3,1.56,15.64-1.11,29.78-7.86-17.6-2.12-15.91,1-12.51-1h-2.31l5.29-3.42L300,217.61l-3.43-3L272.15,206l-13.49-11.88.23-1.23-1-5.36h-4.62s-6.7-2.42-9.16-7.67l-3.24-14.74,3.46,6.77,15,11.77L301,202.72l16.68,4.47,40.8,2.09,23.23,13.85h11.92Z" transform="translate(-215.39 -154.09)"/><polygon class="cls-16" points="181.25 41.49 164.87 38.06 154.45 33.77 158.47 29.58 177.08 28.09 185.8 24.87 154.45 28.35 142.53 29.58 127.05 36.43 142.24 35.09 160.85 44.32 177.38 47.6 179.61 46.11 181.25 41.49"/><path class="cls-17" d="M381.75,223.13l-8.19,13.69L354,246.32l-11.54.93,3.28-18.73-28.81,7.6-1.42,17.53-4,4.17-4-1.34,2.37,3.13,10.43-1.49,22.94-5.66.67-2.59,20.91-2.1,11.32,2.16,15-14.74,5.07-1.2s13.25-8.18,19.21-15.78l-21.74,4.92Z" transform="translate(-215.39 -154.09)"/><polygon class="cls-18" points="133.3 98.38 131.51 121.16 125.56 125.78 122.5 111.11 125.25 104.03 133.3 98.38"/><polygon class="cls-19" points="129.72 127.71 120.77 144.52 126.47 138.23 136.98 124.42 129.72 127.71"/><polygon class="cls-20" points="103.81 150.2 98.83 175.22 112.73 174.32 117.21 148.26 120.77 144.52 103.81 150.2"/><polygon class="cls-21" points="142.24 35.09 148.1 29 142.53 29.58 122.13 33.77 114.24 33.77 113.94 35.09 127.05 36.43 142.24 35.09"/><polygon class="cls-22" points="143.13 55.19 130.32 74.44 112.73 72.31 109.4 55.84 101.56 55.19 86.69 48.91 102.33 53.1 143.13 55.19"/><polygon class="cls-23" points="158.17 82.74 173.9 78.83 180.8 79.91 175.74 81.11 160.7 95.85 149.38 93.69 128.46 95.78 138.59 92.23 158.17 82.74"/><polygon class="cls-24" points="100.09 99.57 118.9 98.38 127.79 98.38 105.83 103.79 94.43 105.52 92.05 102.4 96.07 103.74 100.09 99.57"/><polygon class="cls-19" points="129.72 127.71 120.77 144.52 136.98 124.42 129.72 127.71"/><polygon class="cls-25" points="98.83 175.22 103.81 150.2 110.26 145.91 115.73 129.35 111.33 110.29 125.25 104.03 133.3 98.38 127.79 98.38 94.43 105.52 100.09 99.57 101.51 82.04 130.32 74.44 112.73 72.31 109.4 55.84 143.13 55.19 166.36 69.04 178.28 69.04 200.01 64.13 180.8 79.91 175.74 81.11 160.7 95.85 149.38 93.69 136.98 94.93 144.56 97.19 164.57 98.38 136.87 121.61 131.51 121.16 124.4 126.08 120.77 128.76 129.72 127.71 136.98 124.42 120.77 144.52 117.21 148.26 112.73 174.32 98.83 175.22"/><polygon class="cls-26" points="73.57 83.06 101.51 87.34 128.87 84.83 148.1 76.75 163.13 74.44 192.9 71.17 187.4 75.75 169.23 78.83 159.09 81.2 151.9 81.2 128.23 86.58 100.54 94 84.6 94.94 73.57 83.06"/><polygon class="cls-26" points="87.99 98.38 100.25 97.58 127.4 90 148.68 87.34 173.75 83.06 171.56 84.83 150.56 87.34 147.22 88.05 127.05 91.5 100.09 99.57 93.31 99.57 90.05 100.43 87.99 98.38"/><polygon class="cls-26" points="90.53 121.58 111.56 123.08 125.23 119.75 133.3 111.06 149.44 111.06 142.28 117.07 132.73 116.25 125.15 122.17 114.91 125.78 91.82 125.78 90.53 121.58"/><polygon class="cls-26" points="95.84 138.91 111.14 143.23 122.5 141.26 125.31 140.1 123.55 141.58 121.88 142.48 110.58 144.52 96.26 140.28 95.84 138.91"/><polygon class="cls-27" points="77.16 8.58 79.99 13.2 93.84 20.05 114.24 33.77 122.13 33.77 143.13 29.52 148.1 29 146.4 17.74 97.01 10.43 77.16 8.58"/><polygon class="cls-28" points="79.99 65.47 62.81 68.08 57.05 70.53 63.16 72.17 67.48 69.78 81.03 66.36 84.6 63.53 79.99 65.47"/><polygon class="cls-29" points="42.46 33.45 42.46 29 37.96 24.93 37.02 32 33.02 30.77 37.84 33.45 42.46 33.45"/><polygon class="cls-30" points="53.07 33.77 84.6 43.25 104.06 45.91 117.14 53.86 102.33 53.1 84.6 48.91 53.07 33.77"/><polygon class="cls-31" points="87.28 68.89 99.98 71.17 84.6 63.53 87.28 68.89"/><path class="cls-32" d="M402.46,205.74s-11,3.17-9,7.09,22,2.55,22,2.55Z" transform="translate(-215.39 -154.09)"/><path class="cls-33" d="M284.21,331.83V328l-1-8.19s7.37-9.61,9.12-15.45a96.66,96.66,0,0,0-33.84-28.78s-15.78-6-23.83-6l1.49,10.57s3.73,8.93,14,23.08l.45,16.53,4.76,5.36-.29,1.79h-1.64l-4,4Z" transform="translate(-215.39 -154.09)"/><path class="cls-34" d="M235.67,269.59l7.44,19,6.26,2.93,32,12.8,10.91,0-9.12,15.45-2.68,2.83h-6.4l-13.7-10-10.28-9.38,13.35,16.53,6.31,1.56,4.17,2,7.52-.68,1.88-1.61.87,6.9v3.87l-34.84-.9,4-4,4.09,2.39,7.67,1.18L255,326.92l.29-1.79-4.76-5.36-.45-16.53s-10.27-13.55-14-23.08l-1.49-10.57Z" transform="translate(-215.39 -154.09)"/><polygon class="cls-35" points="58.54 169.26 58.54 177.48 68.82 177.75 68.82 173.88 67.94 166.98 66.06 168.59 58.54 169.26"/><polygon class="cls-36" points="58.69 168.52 60.96 157.12 65.99 150.2 76.9 150.23 70.22 161.54 67.78 165.68 65.1 168.52 58.69 168.52"/><polygon class="cls-37" points="39.93 171.05 47.23 174.55 49.76 176.41 39.63 172.83 39.93 171.05"/><path class="cls-26" d="M245,295.8l26.25,12.95,5.15,2.46,14-2.45a65.55,65.55,0,0,1-6.34,9.57h-9.93l-24-15.09Z" transform="translate(-215.39 -154.09)"/><polygon class="cls-30" points="25.44 128.67 38.9 139.36 26.44 134.57 25.44 128.67"/><path class="cls-38" d="M367.23,332l-15.25-12s13.65-18.5,16.7-28.15l-1.82-3.25s-22.56,6.4-43.08,27.72l-2.68,10.47-3-2.54s-11.77-1.95-19.82.77l-3.55,9.67s22.42,1.29,32.74.8l-.79-2.46Z" transform="translate(-215.39 -154.09)"/><path class="cls-39" d="M366.86,288.66l-9.05,17.7-23,16.11-11-6.09-2.68,10.47-3-2.54,3.68,5.48-19-.61-4.49-4.1-3.55,9.67,15.6.7,17.14.1-.79-2.46,40.5-1.07-15.25-12s13.1-17.93,16.7-28.15Z" transform="translate(-215.39 -154.09)"/><polygon class="cls-40" points="136.59 165.97 118.94 178.54 119.39 168.38 142.41 152.28 136.59 165.97"/><polygon class="cls-41" points="105.71 172.76 111.34 179 112.12 181.47 106.44 175.71 102.75 170.23 105.71 172.76"/></g></g></g></svg>