<svg xmlns="http://www.w3.org/2000/svg" xmlns:xlink="http://www.w3.org/1999/xlink" viewBox="0 0 1043.46 252.22"><defs><style>.cls-1{fill:none;}.cls-2{isolation:isolate;}.cls-3{clip-path:url(#clip-path);}.cls-10,.cls-11,.cls-12,.cls-13,.cls-14,.cls-15,.cls-16,.cls-17,.cls-18,.cls-19,.cls-20,.cls-21,.cls-22,.cls-23,.cls-24,.cls-25,.cls-26,.cls-27,.cls-28,.cls-29,.cls-30,.cls-31,.cls-32,.cls-33,.cls-34,.cls-35,.cls-36,.cls-37,.cls-4,.cls-5,.cls-6,.cls-7,.cls-8,.cls-9{fill-rule:evenodd;}.cls-10,.cls-11,.cls-12,.cls-13,.cls-16,.cls-19,.cls-22,.cls-23,.cls-25,.cls-30,.cls-32,.cls-33,.cls-34,.cls-4,.cls-5,.cls-7,.cls-8,.cls-9{opacity:0.5;}.cls-10,.cls-11,.cls-12,.cls-13,.cls-14,.cls-16,.cls-19,.cls-20,.cls-22,.cls-23,.cls-25,.cls-26,.cls-27,.cls-28,.cls-30,.cls-32,.cls-33,.cls-34,.cls-35,.cls-36,.cls-37,.cls-4,.cls-5,.cls-7,.cls-8,.cls-9{mix-blend-mode:multiply;}.cls-4{fill:url(#Áåçûìÿííûé_ãðàäèåíò_296);}.cls-5{fill:url(#Áåçûìÿííûé_ãðàäèåíò_296-2);}.cls-6{fill:url(#Áåçûìÿííûé_ãðàäèåíò_253);}.cls-7{fill:url(#Áåçûìÿííûé_ãðàäèåíò_296-3);}.cls-8{fill:url(#Áåçûìÿííûé_ãðàäèåíò_296-4);}.cls-9{fill:url(#Áåçûìÿííûé_ãðàäèåíò_296-5);}.cls-10{fill:url(#Áåçûìÿííûé_ãðàäèåíò_296-6);}.cls-11{fill:url(#Áåçûìÿííûé_ãðàäèåíò_296-7);}.cls-12{fill:url(#Áåçûìÿííûé_ãðàäèåíò_296-8);}.cls-13{fill:url(#Áåçûìÿííûé_ãðàäèåíò_296-9);}.cls-14,.cls-20,.cls-26,.cls-27,.cls-28,.cls-35,.cls-36,.cls-37{opacity:0.3;}.cls-14{fill:url(#Áåçûìÿííûé_ãðàäèåíò_296-10);}.cls-15{fill:#9387d1;mix-blend-mode:soft-light;}.cls-16{fill:url(#Áåçûìÿííûé_ãðàäèåíò_296-11);}.cls-17{fill:#644aae;}.cls-18{fill:url(#Áåçûìÿííûé_ãðàäèåíò_192);}.cls-19{fill:url(#Áåçûìÿííûé_ãðàäèåíò_296-12);}.cls-20{fill:url(#Áåçûìÿííûé_ãðàäèåíò_296-13);}.cls-21{fill:url(#Áåçûìÿííûé_ãðàäèåíò_253-2);}.cls-22{fill:url(#Áåçûìÿííûé_ãðàäèåíò_296-14);}.cls-23{fill:url(#Áåçûìÿííûé_ãðàäèåíò_296-15);}.cls-24{fill:#7548cf;}.cls-25{fill:url(#Áåçûìÿííûé_ãðàäèåíò_296-16);}.cls-26{fill:url(#Áåçûìÿííûé_ãðàäèåíò_296-17);}.cls-27{fill:url(#Áåçûìÿííûé_ãðàäèåíò_296-18);}.cls-28{fill:url(#Áåçûìÿííûé_ãðàäèåíò_296-19);}.cls-29{fill:url(#Áåçûìÿííûé_ãðàäèåíò_253-3);}.cls-30{fill:url(#Áåçûìÿííûé_ãðàäèåíò_296-20);}.cls-31{fill:url(#Áåçûìÿííûé_ãðàäèåíò_253-4);}.cls-32{fill:url(#Áåçûìÿííûé_ãðàäèåíò_296-21);}.cls-33{fill:url(#Áåçûìÿííûé_ãðàäèåíò_296-22);}.cls-34{fill:url(#Áåçûìÿííûé_ãðàäèåíò_296-23);}.cls-35{fill:url(#Áåçûìÿííûé_ãðàäèåíò_296-24);}.cls-36{fill:url(#Áåçûìÿííûé_ãðàäèåíò_296-25);}.cls-37{fill:url(#Áåçûìÿííûé_ãðàäèåíò_296-26);}</style><clipPath id="clip-path" transform="translate(43.46 -57.45)"><rect class="cls-1" width="1000" height="400"/></clipPath><linearGradient id="Áåçûìÿííûé_ãðàäèåíò_296" x1="897.46" y1="247.88" x2="1043.46" y2="247.88" gradientUnits="userSpaceOnUse"><stop offset="0" stop-color="#745ebd"/><stop offset="1" stop-color="#542e77"/></linearGradient><linearGradient id="Áåçûìÿííûé_ãðàäèåíò_296-2" x1="0" y1="246.59" x2="227" y2="246.59" xlink:href="#Áåçûìÿííûé_ãðàäèåíò_296"/><linearGradient id="Áåçûìÿííûé_ãðàäèåíò_253" x1="905.73" y1="304.76" x2="905.73" y2="57.45" gradientUnits="userSpaceOnUse"><stop offset="0" stop-color="#7e4bc2"/><stop offset="1" stop-color="#401b66"/></linearGradient><linearGradient id="Áåçûìÿííûé_ãðàäèåíò_296-3" x1="843.39" y1="159.87" x2="968.07" y2="159.87" xlink:href="#Áåçûìÿííûé_ãðàäèåíò_296"/><linearGradient id="Áåçûìÿííûé_ãðàäèåíò_296-4" x1="866.37" y1="267.01" x2="954.43" y2="267.01" xlink:href="#Áåçûìÿííûé_ãðàäèåíò_296"/><linearGradient id="Áåçûìÿííûé_ãðàäèåíò_296-5" x1="936.92" y1="193.2" x2="976.34" y2="193.2" xlink:href="#Áåçûìÿííûé_ãðàäèåíò_296"/><linearGradient id="Áåçûìÿííûé_ãðàäèåíò_296-6" x1="963.47" y1="214.53" x2="992.95" y2="214.53" xlink:href="#Áåçûìÿííûé_ãðàäèåíò_296"/><linearGradient id="Áåçûìÿííûé_ãðàäèåíò_296-7" x1="897.54" y1="267.01" x2="954.43" y2="267.01" xlink:href="#Áåçûìÿííûé_ãðàäèåíò_296"/><linearGradient id="Áåçûìÿííûé_ãðàäèåíò_296-8" x1="913.02" y1="189.46" x2="964.72" y2="189.46" xlink:href="#Áåçûìÿííûé_ãðàäèåíò_296"/><linearGradient id="Áåçûìÿííûé_ãðàäèåíò_296-9" x1="905.74" y1="106.18" x2="966.96" y2="106.18" xlink:href="#Áåçûìÿííûé_ãðàäèåíò_296"/><linearGradient id="Áåçûìÿííûé_ãðàäèåíò_296-10" x1="866.37" y1="179.24" x2="964.72" y2="179.24" xlink:href="#Áåçûìÿííûé_ãðàäèåíò_296"/><linearGradient id="Áåçûìÿííûé_ãðàäèåíò_296-11" x1="914.44" y1="232.64" x2="939.95" y2="232.64" xlink:href="#Áåçûìÿííûé_ãðàäèåíò_296"/><linearGradient id="Áåçûìÿííûé_ãðàäèåíò_192" x1="173.41" y1="113.73" x2="173.41" y2="59.03" gradientUnits="userSpaceOnUse"><stop offset="0" stop-color="#4a37a7"/><stop offset="1" stop-color="#401b66"/></linearGradient><linearGradient id="Áåçûìÿííûé_ãðàäèåíò_296-12" x1="172.44" y1="29.34" x2="261.31" y2="29.34" xlink:href="#Áåçûìÿííûé_ãðàäèåíò_296"/><linearGradient id="Áåçûìÿííûé_ãðàäèåíò_296-13" x1="172.44" y1="29.34" x2="235.43" y2="29.34" xlink:href="#Áåçûìÿííûé_ãðàäèåíò_296"/><linearGradient id="Áåçûìÿííûé_ãðàäèåíò_253-2" x1="141.4" y1="306.5" x2="141.4" y2="90.11" xlink:href="#Áåçûìÿííûé_ãðàäèåíò_253"/><linearGradient id="Áåçûìÿííûé_ãðàäèåíò_296-14" x1="59.6" y1="238.21" x2="141.26" y2="238.21" xlink:href="#Áåçûìÿííûé_ãðàäèåíò_296"/><linearGradient id="Áåçûìÿííûé_ãðàäèåíò_296-15" x1="85.69" y1="151.53" x2="173.41" y2="151.53" xlink:href="#Áåçûìÿííûé_ãðàäèåíò_296"/><linearGradient id="Áåçûìÿííûé_ãðàäèåíò_296-16" x1="176.81" y1="87.55" x2="266.67" y2="87.55" xlink:href="#Áåçûìÿííûé_ãðàäèåíò_296"/><linearGradient id="Áåçûìÿííûé_ãðàäèåíò_296-17" x1="85.69" y1="156.06" x2="137.38" y2="156.06" xlink:href="#Áåçûìÿííûé_ãðàäèåíò_296"/><linearGradient id="Áåçûìÿííûé_ãðàäèåíò_296-18" x1="59.6" y1="237.92" x2="115.65" y2="237.92" xlink:href="#Áåçûìÿííûé_ãðàäèåíò_296"/><linearGradient id="Áåçûìÿííûé_ãðàäèåíò_296-19" x1="176.81" y1="90.57" x2="204.63" y2="90.57" xlink:href="#Áåçûìÿííûé_ãðàäèåíò_296"/><linearGradient id="Áåçûìÿííûé_ãðàäèåíò_253-3" x1="115.78" y1="249.05" x2="115.78" y2="176.01" xlink:href="#Áåçûìÿííûé_ãðàäèåíò_253"/><linearGradient id="Áåçûìÿííûé_ãðàäèåíò_296-20" x1="82.36" y1="221.02" x2="149.2" y2="221.02" xlink:href="#Áåçûìÿííûé_ãðàäèåíò_296"/><linearGradient id="Áåçûìÿííûé_ãðàäèåíò_253-4" x1="178.76" y1="307.59" x2="178.76" y2="189.2" xlink:href="#Áåçûìÿííûé_ãðàäèåíò_253"/><linearGradient id="Áåçûìÿííûé_ãðàäèåíò_296-21" x1="192.2" y1="246.01" x2="222.27" y2="246.01" xlink:href="#Áåçûìÿííûé_ãðàäèåíò_296"/><linearGradient id="Áåçûìÿííûé_ãðàäèåíò_296-22" x1="183.24" y1="227.31" x2="238.5" y2="227.31" xlink:href="#Áåçûìÿííûé_ãðàäèåíò_296"/><linearGradient id="Áåçûìÿííûé_ãðàäèåíò_296-23" x1="184.31" y1="172.64" x2="259.58" y2="172.64" xlink:href="#Áåçûìÿííûé_ãðàäèåíò_296"/><linearGradient id="Áåçûìÿííûé_ãðàäèåíò_296-24" x1="184.31" y1="172.64" x2="228.6" y2="172.64" xlink:href="#Áåçûìÿííûé_ãðàäèåíò_296"/><linearGradient id="Áåçûìÿííûé_ãðàäèåíò_296-25" x1="183.24" y1="227.31" x2="223.54" y2="227.31" xlink:href="#Áåçûìÿííûé_ãðàäèåíò_296"/><linearGradient id="Áåçûìÿííûé_ãðàäèåíò_296-26" x1="192.2" y1="246.01" x2="215.19" y2="246.01" xlink:href="#Áåçûìÿííûé_ãðàäèåíò_296"/></defs><g class="cls-2"><g id="rock_01"><g class="cls-3"><polygon class="cls-4" points="910.68 244.45 897.46 245.99 1032.13 251.22 1043.46 252.22 1043.46 243.55 910.68 244.45"/><polygon class="cls-5" points="227 250.88 0 250.25 63.3 242.29 224.34 248.66 227 250.88"/><path class="cls-6" d="M946.17,263.73l8.26,41-88.06-1,17.19-37.21,16.77-4.25-6.87-2.62,6.87-32.28.29-.28L913,215.22l-31,13.26L849.88,228l-6.49-7s30.12-38.74,62.35-66.11v-5.84l-8.2-1-15.48,1.17s3.47-43.5,56.84-81.57l20.22-10.16h0c.33.54,10,16.1,7.39,43.37l-14.21,22.31-4.82,10.58L967,123.14s8,39.68-18.94,83.6l-3.7,13.81L940,231.65l-6.65,5.66-.42,1.71h0l15.4-9.77s4.23,13.85,2.38,32.81Z" transform="translate(43.46 -57.45)"/><path class="cls-7" d="M964.72,166.37a135.8,135.8,0,0,1-15.4,38.21c-.43.72-.85,1.43-1.3,2.16l-3.7,13.81L940,231.65l-6.65,5.66-.42,1.71L929.4,253.3l-29.07,9-6.87-2.62,6.87-32.28.29-.28c26.23,4.27,35.24.88,35.24.88l6.08-20.79-28.92,8-31,13.26L849.88,228l-6.49-7c21.93,2.85,36.81-.38,36.81-.38,23.66-7.39,79.13-56.14,80-56.9h0c4.63-29,0-35.83,0-35.83L947,136.37,934.52,142l-28.78,12.93v-5.84l-8.2-1-15.48,1.17,33.73-10.65,40-44.15c7.15-16,3.43-36.26,3.31-36.92.33.54,10,16.1,7.39,43.37l-14.21,22.31-4.82,10.58L967,123.14S970.6,141.17,964.72,166.37Z" transform="translate(43.46 -57.45)"/><path class="cls-8" d="M954.43,304.76l-46.25-.54-41.81-.49,17.19-37.21,14-.22,35.15-9.78,12-15.06,3.56-12.21s4.23,13.85,2.38,32.81l-4.49,1.67Z" transform="translate(43.46 -57.45)"/><polygon class="cls-9" points="976.34 181.57 970.96 191.55 949.2 199.3 936.92 202.2 943.79 204.82 972.86 195.85 976.34 181.57"/><polygon class="cls-10" points="989.63 206.28 963.47 212.47 985.4 212.47 992.95 222.79 989.63 206.28"/><path class="cls-11" d="M954.43,304.76l-46.25-.54-4.45-.2-6.19-37.72,35.15-9.78,12-15.06,3.56-12.21s4.23,13.85,2.38,32.81l-4.49,1.67Z" transform="translate(43.46 -57.45)"/><path class="cls-12" d="M964.72,166.37a135.8,135.8,0,0,1-15.4,38.21l-1.69,0L940.1,207,913,215.22l32.69-13,14.48-38.51h0Z" transform="translate(43.46 -57.45)"/><path class="cls-13" d="M966.52,100.83l-14.21,22.31-4.82,10.58-13,8.24-28.78,12.93v-5.84l17.71-5.15,26-25.89,6.33-23.63c7.15-16,3.43-36.26,3.31-36.92C959.46,58,969.11,73.56,966.52,100.83Z" transform="translate(43.46 -57.45)"/><path class="cls-14" d="M866.37,222.06l14.63.14,8.88-2.08,12.87-8.86,3-4.09L926,194.5l25.27-17,5.89-5.67,7.24-4.58.34-27.13-2.66-3.85s.46,17.4-1.86,27.44L918.5,198l-35,21.75L878.2,221Z" transform="translate(43.46 -57.45)"/><polygon class="cls-15" points="917.84 228.95 936.92 233.08 944.98 233.08 969.45 231.01 989.21 232.3 994.87 232.3 997.31 244.45 974.78 239.21 945.51 236.33 935.63 235.29 915.21 234.64 917.84 228.95"/><polygon class="cls-15" points="923.96 215.7 941.88 214.24 956.63 216.04 985.71 219.9 991.85 217.3 991.2 214.06 984.09 217.84 963.47 216.04 941.65 212.81 925.21 212.99 923.96 215.7"/><polygon class="cls-15" points="941.12 182.47 961.96 182.47 969.45 179.03 979.81 175.87 983.41 174.2 976.76 179.86 976.34 181.57 965.09 185.87 959.96 189.98 947.96 190.6 939.73 189.01 941.12 182.47"/><path class="cls-16" d="M933.3,237.31l-2.8-3.48-16.06-5.08s6.79,1.19,21.42-.78l4.09,3.68Z" transform="translate(43.46 -57.45)"/><polygon class="cls-17" points="914.26 164.21 930.23 160.27 925.63 168.55 921.13 166.49 914.26 164.21"/><polygon class="cls-17" points="953.86 82.78 966.17 73.44 961.57 84 953.86 82.78"/><polygon class="cls-17" points="934.34 208.86 941.65 212.81 947.77 206.97 934.34 208.86"/><path class="cls-18" d="M150.23,59,183.6,69s25.18,21.47,34.25,34.62v3.94L184,111.85l-4-4.26h-5.92l-21,6.14-15.53-9.59L132.2,71.81l4.38-.74-7.6-8.7,3.16-1.67Z" transform="translate(43.46 -57.45)"/><polygon class="cls-19" points="261.31 50.15 224.29 18.55 193.69 2.39 175.6 3.25 172.44 4.92 180.04 13.62 175.66 14.36 181.09 46.69 196.62 56.28 217.62 50.15 223.55 50.15 227.5 54.41 261.31 50.15"/><polygon class="cls-20" points="175.66 14.36 195.03 22.75 199.66 29.34 195.03 52.36 181.09 46.69 196.62 56.28 217.62 50.15 223.55 50.15 223.55 37.27 233.45 29.34 235.43 28.07 228.56 30.51 224.29 18.55 193.69 2.39 175.6 3.25 172.44 4.92 180.04 13.62 175.66 14.36"/><path class="cls-21" d="M173.41,185.44h-4l-8.2-2.37-9.6-8.63-2.69,1.73-3.3-1.73-10.36,9.28,2.44,4-.28,2.29a47.24,47.24,0,0,1-21.14-6.32l-1.15,1.72c8.19,10.35,17.25,29.33,17.25,29.33l-3.88,4.17a47.93,47.93,0,0,1,5.32,10.21L137,285.23l0,0,4.29,5.72V306.5l-78.87-1.79c0-15.1,3.24-65.57,3.24-65.57l-6-13.58a.22.22,0,0,1,0-.08A236.2,236.2,0,0,1,71,169.93v0c5.18-3.66,16.18-4.74,16.18-4.74L85.69,150.5l7.91-21,.28-.76L92.16,122c5-20.27,15.31-31.92,15.31-31.92L133.35,113l43.27,9.49,46.59,14.21-22.44,24.18L170.88,177Z" transform="translate(43.46 -57.45)"/><path class="cls-22" d="M141.26,291V306.5l-78.87-1.79c0-15.1,3.24-65.57,3.24-65.57l-6-13.66A236.2,236.2,0,0,1,71,169.93v0L99,197.09l20.6,13.59,12.79,4.09-3.88,4.17-3-4.17-17.68-9.49-18.55-2.44,6.76,16,7.9,2,29.91,8.34L137,285.23l0,0-.17,1.46-4.6,6L110,275.59,81,233v-6.42L73,224.69l-.28,9.21L110,286.71l16.31,13.47,11.22.28Z" transform="translate(43.46 -57.45)"/><path class="cls-23" d="M173.41,185.44h-4l-8.2-2.37-9.6-8.63-2.69,1.73-3.3-1.73-10.36,9.28,2.44,4-.28,2.29a47.24,47.24,0,0,1-21.14-6.32l-1.15,1.72-5.46,4.64L96,182,87.2,165.17,85.69,150.5l7.91-21L92.16,122l14.78,5.18,7.76,5.5,15,7.39,15.8,16.23,6.93,4-6.13-17.57-1.61-11.11L133.35,113l14.16,19.31L170.88,177Z" transform="translate(43.46 -57.45)"/><polygon class="cls-24" points="176.81 55.53 192.11 71.25 211.74 79.23 266.67 79.23 220.08 65.02 176.81 55.53"/><polygon class="cls-25" points="211.74 79.23 203.94 90.9 191.58 74.72 192.11 71.25 176.81 55.53 190.12 73.21 214.34 119.58 244.23 103.41 266.67 79.23 211.74 79.23"/><path class="cls-26" d="M129.68,140.1l-19.2-3.42h-4.74l-6.69,22,14,21.57L137.38,190a55.18,55.18,0,0,1-21.14-6.32l-1.15,1.72-5.46,4.64L96,182,87.2,165.17l-1.51-13.64,7.91-22.07L92.16,122l14.78,5.18,7.76,5.5Z" transform="translate(43.46 -57.45)"/><path class="cls-27" d="M99,197.09l9.55,6.3-.74,1.89-18.55-2.44V233.7l14.39,32.5,6.39,9.39L81,233v-6.42L73,224.69l-.28,9.21L110,286.71l5.66,19.21-53.26-1.21,3.24-65.57-6-13.66S62.84,189.54,71,169.91Z" transform="translate(43.46 -57.45)"/><polygon class="cls-28" points="195.03 116.99 195.88 102.86 189.29 82.19 188.13 74.18 176.81 55.53 190.97 74.84 203.94 116.99 204.63 125.62 195.03 116.99"/><polygon class="cls-15" points="178.44 192.98 132.67 167.96 129.15 157.32 107.96 135.98 105.41 149.14 132.67 170.92 132.67 176.25 159.11 205.66 179.34 208.75 178.44 192.98"/><polygon class="cls-15" points="256.13 90.59 223.53 92.62 203.94 90.9 193.7 80.07 192.32 79.23 193.97 84.58 202.11 95.21 230.72 98.61 251.71 95.35 256.13 90.59"/><polygon class="cls-29" points="87.24 176.01 127.73 198.44 149.2 249.05 87.67 246.18 82.36 228.1 85.38 226.39 84.51 213.54 85.48 209.12 91.86 211.35 92.72 209.73 84.37 192.98 87.24 176.01"/><polygon class="cls-30" points="84.37 192.98 106.65 228.1 135.99 244.17 147.07 245.56 149.2 249.05 87.67 246.18 82.36 228.1 94.43 233.53 107.37 236.98 91.41 230.79 85.38 226.39 84.73 212.53 95.91 221.02 99.75 222.02 91.86 211.35 92.72 209.73 84.37 192.98"/><path class="cls-31" d="M217.74,250l-1.62,10.11-19.44,7.41L195,269.14v4.79l-14.95,23.48-7.3-1.22,6,3.14v8.26H148.74l2.28-8.26h6.68L151,293.76l-11.24-23.58,6.68-2.68h6.9v-2.68L151,261.66l-7.55-21.39-1.68-11.37h5.1l-6-39.7s28.94,7.9,43.35,17.55C206.06,221.39,217.74,250,217.74,250Z" transform="translate(43.46 -57.45)"/><polygon class="cls-32" points="213.01 244.83 222.27 241.89 222.27 250.14 192.2 250.14 194.48 241.89 213.01 244.83"/><polygon class="cls-33" points="216.3 218.63 238.5 216.48 223.54 239.96 216.25 238.74 210.26 241.6 201.16 241.89 194.48 236.31 183.24 212.73 216.3 218.63"/><polygon class="cls-34" points="259.58 202.64 240.14 210.05 238.5 211.7 228.6 213.53 201.39 210.43 196.82 210.05 196.82 207.38 194.48 204.22 186.93 182.82 185.25 171.45 190.35 171.45 184.31 131.75 195.91 161.86 212.55 196.36 259.58 202.64"/><polygon class="cls-35" points="212.55 196.36 209.87 207.5 228.6 213.53 196.82 210.05 196.82 207.38 194.48 204.22 186.8 181.93 185.25 171.45 194.77 176.25 190.35 171.45 184.31 131.75 212.55 196.36"/><polygon class="cls-36" points="183.24 212.73 194.48 236.31 201.16 241.89 210.26 241.6 216.25 238.74 223.54 239.96 215.19 233.81 216.3 218.63 183.24 212.73"/><polygon class="cls-37" points="194.48 241.89 213.01 244.83 215.19 250.14 192.2 250.14 194.48 241.89"/><path class="cls-24" d="M217.85,107.59,180.83,76l2.77-7s25.13,19.69,34.25,34.62Z" transform="translate(43.46 -57.45)"/><path class="cls-24" d="M140.84,189.2l28.25,64.61,47,6.28L217.74,250s-15.42-31.94-29-43.46S140.84,189.2,140.84,189.2Z" transform="translate(43.46 -57.45)"/></g></g></g></svg>