<svg xmlns="http://www.w3.org/2000/svg" xmlns:xlink="http://www.w3.org/1999/xlink" viewBox="0 0 1002.19 77.84"><defs><style>.cls-1{fill:none;}.cls-2{isolation:isolate;}.cls-3{clip-path:url(#clip-path);}.cls-10,.cls-100,.cls-101,.cls-102,.cls-103,.cls-104,.cls-11,.cls-12,.cls-13,.cls-14,.cls-15,.cls-16,.cls-17,.cls-18,.cls-19,.cls-20,.cls-21,.cls-22,.cls-23,.cls-24,.cls-25,.cls-26,.cls-27,.cls-28,.cls-29,.cls-30,.cls-31,.cls-32,.cls-33,.cls-34,.cls-35,.cls-36,.cls-37,.cls-38,.cls-39,.cls-4,.cls-40,.cls-41,.cls-42,.cls-43,.cls-44,.cls-45,.cls-46,.cls-47,.cls-48,.cls-49,.cls-5,.cls-50,.cls-51,.cls-52,.cls-53,.cls-54,.cls-55,.cls-56,.cls-57,.cls-58,.cls-59,.cls-6,.cls-60,.cls-61,.cls-62,.cls-63,.cls-64,.cls-65,.cls-66,.cls-67,.cls-68,.cls-69,.cls-7,.cls-70,.cls-71,.cls-72,.cls-73,.cls-74,.cls-75,.cls-76,.cls-77,.cls-78,.cls-79,.cls-8,.cls-80,.cls-81,.cls-82,.cls-83,.cls-84,.cls-85,.cls-86,.cls-87,.cls-88,.cls-89,.cls-9,.cls-90,.cls-91,.cls-92,.cls-93,.cls-94,.cls-95,.cls-96,.cls-97,.cls-98,.cls-99{fill-rule:evenodd;}.cls-4{fill:url(#Áåçûìÿííûé_ãðàäèåíò_109);}.cls-5{fill:url(#Áåçûìÿííûé_ãðàäèåíò_300);}.cls-6{fill:url(#Áåçûìÿííûé_ãðàäèåíò_300-2);}.cls-7{fill:url(#Áåçûìÿííûé_ãðàäèåíò_300-3);}.cls-8{fill:url(#Áåçûìÿííûé_ãðàäèåíò_300-4);}.cls-9{fill:url(#Áåçûìÿííûé_ãðàäèåíò_306);}.cls-10{fill:url(#Áåçûìÿííûé_ãðàäèåíò_306-2);}.cls-11{fill:url(#Áåçûìÿííûé_ãðàäèåíò_306-3);}.cls-12{fill:#6d4fa6;}.cls-13{fill:url(#Áåçûìÿííûé_ãðàäèåíò_300-5);}.cls-14{fill:url(#Áåçûìÿííûé_ãðàäèåíò_300-6);}.cls-15{fill:url(#Áåçûìÿííûé_ãðàäèåíò_306-4);}.cls-16{fill:url(#Áåçûìÿííûé_ãðàäèåíò_306-5);}.cls-17{fill:url(#Áåçûìÿííûé_ãðàäèåíò_131);}.cls-18{fill:url(#Áåçûìÿííûé_ãðàäèåíò_300-7);}.cls-19{fill:url(#Áåçûìÿííûé_ãðàäèåíò_106);}.cls-20{fill:url(#Áåçûìÿííûé_ãðàäèåíò_106-2);}.cls-21{fill:url(#Áåçûìÿííûé_ãðàäèåíò_106-3);}.cls-22{fill:url(#Áåçûìÿííûé_ãðàäèåíò_129);}.cls-23{fill:url(#Áåçûìÿííûé_ãðàäèåíò_114);}.cls-24{fill:url(#Áåçûìÿííûé_ãðàäèåíò_300-8);}.cls-25{fill:url(#Áåçûìÿííûé_ãðàäèåíò_300-9);}.cls-26{fill:url(#Áåçûìÿííûé_ãðàäèåíò_300-10);}.cls-27{fill:url(#Áåçûìÿííûé_ãðàäèåíò_106-4);}.cls-28{fill:url(#Áåçûìÿííûé_ãðàäèåíò_300-11);}.cls-29{fill:#786db2;}.cls-30{fill:url(#Áåçûìÿííûé_ãðàäèåíò_123);}.cls-31,.cls-32,.cls-33,.cls-34,.cls-35,.cls-36,.cls-37,.cls-38,.cls-39,.cls-40,.cls-41,.cls-46,.cls-47,.cls-48,.cls-49,.cls-50,.cls-51,.cls-52,.cls-53{opacity:0.2;}.cls-102,.cls-103,.cls-104,.cls-31,.cls-32,.cls-33,.cls-34,.cls-35,.cls-36,.cls-37,.cls-38,.cls-39,.cls-40,.cls-41,.cls-46,.cls-47,.cls-48,.cls-49,.cls-50,.cls-51,.cls-52,.cls-53,.cls-54,.cls-55,.cls-56,.cls-57,.cls-58,.cls-59,.cls-60,.cls-61,.cls-62,.cls-63,.cls-64,.cls-65,.cls-66,.cls-80,.cls-81,.cls-82,.cls-84,.cls-85,.cls-86,.cls-87,.cls-88,.cls-89,.cls-90,.cls-91,.cls-92,.cls-93,.cls-94,.cls-96,.cls-97,.cls-98{mix-blend-mode:multiply;}.cls-31{fill:url(#Áåçûìÿííûé_ãðàäèåíò_296);}.cls-32{fill:url(#Áåçûìÿííûé_ãðàäèåíò_296-2);}.cls-33{fill:url(#Áåçûìÿííûé_ãðàäèåíò_296-3);}.cls-34{fill:url(#Áåçûìÿííûé_ãðàäèåíò_296-4);}.cls-35{fill:url(#Áåçûìÿííûé_ãðàäèåíò_296-5);}.cls-36{fill:url(#Áåçûìÿííûé_ãðàäèåíò_296-6);}.cls-37{fill:url(#Áåçûìÿííûé_ãðàäèåíò_296-7);}.cls-38{fill:url(#Áåçûìÿííûé_ãðàäèåíò_296-8);}.cls-39{fill:url(#Áåçûìÿííûé_ãðàäèåíò_296-9);}.cls-40{fill:url(#Áåçûìÿííûé_ãðàäèåíò_296-10);}.cls-41{fill:url(#Áåçûìÿííûé_ãðàäèåíò_296-11);}.cls-42{fill:url(#Áåçûìÿííûé_ãðàäèåíò_300-12);}.cls-43{fill:url(#Áåçûìÿííûé_ãðàäèåíò_267);}.cls-44{fill:url(#Áåçûìÿííûé_ãðàäèåíò_266);}.cls-45{fill:url(#Áåçûìÿííûé_ãðàäèåíò_106-5);}.cls-46{fill:url(#Áåçûìÿííûé_ãðàäèåíò_296-12);}.cls-47{fill:url(#Áåçûìÿííûé_ãðàäèåíò_296-13);}.cls-48{fill:url(#Áåçûìÿííûé_ãðàäèåíò_296-14);}.cls-49{fill:url(#Áåçûìÿííûé_ãðàäèåíò_296-15);}.cls-50{fill:url(#Áåçûìÿííûé_ãðàäèåíò_296-16);}.cls-51{fill:url(#Áåçûìÿííûé_ãðàäèåíò_296-17);}.cls-52{fill:url(#Áåçûìÿííûé_ãðàäèåíò_296-18);}.cls-53{fill:#ddaf50;}.cls-54{opacity:0.87;fill:url(#Áåçûìÿííûé_ãðàäèåíò_296-19);}.cls-102,.cls-103,.cls-104,.cls-55,.cls-56,.cls-57,.cls-58,.cls-59,.cls-60,.cls-61,.cls-62,.cls-63,.cls-64,.cls-65,.cls-66,.cls-80,.cls-81,.cls-82,.cls-84,.cls-85,.cls-86,.cls-87,.cls-88,.cls-89,.cls-90,.cls-91,.cls-92,.cls-93,.cls-94,.cls-96,.cls-97,.cls-98{opacity:0.5;}.cls-55{fill:url(#Áåçûìÿííûé_ãðàäèåíò_296-20);}.cls-56{fill:url(#Áåçûìÿííûé_ãðàäèåíò_296-21);}.cls-57{fill:url(#Áåçûìÿííûé_ãðàäèåíò_296-22);}.cls-58{fill:url(#Áåçûìÿííûé_ãðàäèåíò_296-23);}.cls-59{fill:url(#Áåçûìÿííûé_ãðàäèåíò_296-24);}.cls-60{fill:url(#Áåçûìÿííûé_ãðàäèåíò_296-25);}.cls-61{fill:url(#Áåçûìÿííûé_ãðàäèåíò_296-26);}.cls-62{fill:url(#Áåçûìÿííûé_ãðàäèåíò_296-27);}.cls-63{fill:url(#Áåçûìÿííûé_ãðàäèåíò_296-28);}.cls-64{fill:url(#Áåçûìÿííûé_ãðàäèåíò_296-29);}.cls-65{fill:url(#Áåçûìÿííûé_ãðàäèåíò_296-30);}.cls-66{fill:url(#Áåçûìÿííûé_ãðàäèåíò_296-31);}.cls-67{fill:url(#Áåçûìÿííûé_ãðàäèåíò_164);}.cls-68{fill:url(#Áåçûìÿííûé_ãðàäèåíò_164-2);}.cls-69{fill:url(#Áåçûìÿííûé_ãðàäèåíò_164-3);}.cls-70{fill:url(#Áåçûìÿííûé_ãðàäèåíò_164-4);}.cls-71{fill:url(#Áåçûìÿííûé_ãðàäèåíò_164-5);}.cls-72{fill:url(#Áåçûìÿííûé_ãðàäèåíò_164-6);}.cls-73{fill:url(#Áåçûìÿííûé_ãðàäèåíò_164-7);}.cls-74{fill:url(#Áåçûìÿííûé_ãðàäèåíò_153);}.cls-75{fill:url(#Áåçûìÿííûé_ãðàäèåíò_153-2);}.cls-76{fill:url(#Áåçûìÿííûé_ãðàäèåíò_164-8);}.cls-77{fill:url(#Áåçûìÿííûé_ãðàäèåíò_164-9);}.cls-78{fill:url(#Áåçûìÿííûé_ãðàäèåíò_153-3);}.cls-79{fill:url(#Áåçûìÿííûé_ãðàäèåíò_153-4);}.cls-80{fill:url(#Áåçûìÿííûé_ãðàäèåíò_296-32);}.cls-81{fill:url(#Áåçûìÿííûé_ãðàäèåíò_296-33);}.cls-82{fill:url(#Áåçûìÿííûé_ãðàäèåíò_296-34);}.cls-83{fill:url(#Áåçûìÿííûé_ãðàäèåíò_164-10);}.cls-84{fill:url(#Áåçûìÿííûé_ãðàäèåíò_296-35);}.cls-85{fill:url(#Áåçûìÿííûé_ãðàäèåíò_296-36);}.cls-86{fill:url(#Áåçûìÿííûé_ãðàäèåíò_296-37);}.cls-87{fill:url(#Áåçûìÿííûé_ãðàäèåíò_296-38);}.cls-88{fill:url(#Áåçûìÿííûé_ãðàäèåíò_296-39);}.cls-89{fill:url(#Áåçûìÿííûé_ãðàäèåíò_296-40);}.cls-90{fill:url(#Áåçûìÿííûé_ãðàäèåíò_296-41);}.cls-91{fill:url(#Áåçûìÿííûé_ãðàäèåíò_296-42);}.cls-92{fill:url(#Áåçûìÿííûé_ãðàäèåíò_296-43);}.cls-93{fill:url(#Áåçûìÿííûé_ãðàäèåíò_296-44);}.cls-94{fill:url(#Áåçûìÿííûé_ãðàäèåíò_296-45);}.cls-95{fill:#5242a4;}.cls-96{fill:url(#Áåçûìÿííûé_ãðàäèåíò_296-46);}.cls-97{fill:url(#Áåçûìÿííûé_ãðàäèåíò_296-47);}.cls-98{fill:url(#Áåçûìÿííûé_ãðàäèåíò_296-48);}.cls-99{fill:url(#Áåçûìÿííûé_ãðàäèåíò_164-11);}.cls-100{fill:url(#Áåçûìÿííûé_ãðàäèåíò_164-12);}.cls-101{fill:url(#Áåçûìÿííûé_ãðàäèåíò_153-5);}.cls-102{fill:url(#Áåçûìÿííûé_ãðàäèåíò_296-49);}.cls-103{fill:url(#Áåçûìÿííûé_ãðàäèåíò_296-50);}.cls-104{fill:url(#Áåçûìÿííûé_ãðàäèåíò_296-51);}</style><clipPath id="clip-path" transform="translate(0.44 -322.6)"><rect class="cls-1" width="1000" height="400"/></clipPath><radialGradient id="Áåçûìÿííûé_ãðàäèåíò_109" cx="499.78" cy="363.39" r="354.68" gradientUnits="userSpaceOnUse"><stop offset="0" stop-color="#6d4084"/><stop offset="1" stop-color="#5a46a4"/></radialGradient><linearGradient id="Áåçûìÿííûé_ãðàäèåíò_300" x1="62.44" y1="77.64" x2="62.44" y2="40.03" gradientUnits="userSpaceOnUse"><stop offset="0.01" stop-color="#491b56"/><stop offset="0.41" stop-color="#492063"/><stop offset="0.99" stop-color="#482a7e"/></linearGradient><linearGradient id="Áåçûìÿííûé_ãðàäèåíò_300-2" x1="931.81" y1="370.2" x2="931.81" y2="354.51" xlink:href="#Áåçûìÿííûé_ãðàäèåíò_300"/><linearGradient id="Áåçûìÿííûé_ãðàäèåíò_300-3" x1="47.72" y1="358.3" x2="47.72" y2="347.75" xlink:href="#Áåçûìÿííûé_ãðàäèåíò_300"/><linearGradient id="Áåçûìÿííûé_ãðàäèåíò_300-4" x1="690.16" y1="39.65" x2="690.16" y2="20.41" xlink:href="#Áåçûìÿííûé_ãðàäèåíò_300"/><linearGradient id="Áåçûìÿííûé_ãðàäèåíò_306" x1="478.27" y1="47.23" x2="478.27" y2="30.4" gradientUnits="userSpaceOnUse"><stop offset="0.01" stop-color="#3a1847"/><stop offset="0.5" stop-color="#451c54"/><stop offset="0.99" stop-color="#542266"/></linearGradient><linearGradient id="Áåçûìÿííûé_ãðàäèåíò_306-2" x1="562.31" y1="359.31" x2="623.75" y2="359.31" xlink:href="#Áåçûìÿííûé_ãðàäèåíò_306"/><linearGradient id="Áåçûìÿííûé_ãðàäèåíò_306-3" x1="548.78" y1="39.14" x2="585.36" y2="39.14" xlink:href="#Áåçûìÿííûé_ãðàäèåíò_306"/><linearGradient id="Áåçûìÿííûé_ãðàäèåíò_300-5" x1="215" y1="359.77" x2="215" y2="345.25" xlink:href="#Áåçûìÿííûé_ãðàäèåíò_300"/><linearGradient id="Áåçûìÿííûé_ãðàäèåíò_300-6" x1="372.86" y1="58.9" x2="372.86" y2="15.38" xlink:href="#Áåçûìÿííûé_ãðàäèåíò_300"/><linearGradient id="Áåçûìÿííûé_ãðàäèåíò_306-4" x1="281.94" y1="54.6" x2="281.94" y2="37" xlink:href="#Áåçûìÿííûé_ãðàäèåíò_306"/><linearGradient id="Áåçûìÿííûé_ãðàäèåíò_306-5" x1="427" y1="77.84" x2="427" y2="49.02" xlink:href="#Áåçûìÿííûé_ãðàäèåíò_306"/><radialGradient id="Áåçûìÿííûé_ãðàäèåíò_131" cx="446.22" cy="365.53" r="76.09" gradientUnits="userSpaceOnUse"><stop offset="0" stop-color="#6d5eb3"/><stop offset="1" stop-color="#77528b"/></radialGradient><linearGradient id="Áåçûìÿííûé_ãðàäèåíò_300-7" x1="438.89" y1="74.6" x2="438.89" y2="68.32" xlink:href="#Áåçûìÿííûé_ãðàäèåíò_300"/><linearGradient id="Áåçûìÿííûé_ãðàäèåíò_106" x1="354.42" y1="398.76" x2="354.42" y2="374.35" gradientUnits="userSpaceOnUse"><stop offset="0" stop-color="#77528b"/><stop offset="1" stop-color="#6d5eb3"/></linearGradient><linearGradient id="Áåçûìÿííûé_ãðàäèåíò_106-2" x1="438.4" y1="391.65" x2="438.4" y2="388.64" xlink:href="#Áåçûìÿííûé_ãðàäèåíò_106"/><linearGradient id="Áåçûìÿííûé_ãðàäèåíò_106-3" x1="431.16" y1="388.96" x2="431.16" y2="387.16" xlink:href="#Áåçûìÿííûé_ãðàäèåíò_106"/><radialGradient id="Áåçûìÿííûé_ãðàäèåíò_129" cx="128.24" cy="21575.41" r="92.91" gradientTransform="translate(0 -5729.55) scale(1 0.28)" gradientUnits="userSpaceOnUse"><stop offset="0" stop-color="#6d6bfb"/><stop offset="1" stop-color="#77528b"/></radialGradient><linearGradient id="Áåçûìÿííûé_ãðàäèåíò_114" x1="306.11" y1="350.63" x2="438.69" y2="350.63" gradientUnits="userSpaceOnUse"><stop offset="0" stop-color="#77528b"/><stop offset="1" stop-color="#6d95ff"/></linearGradient><linearGradient id="Áåçûìÿííûé_ãðàäèåíò_300-8" x1="791.36" y1="43.04" x2="791.36" y2="21.4" xlink:href="#Áåçûìÿííûé_ãðàäèåíò_300"/><linearGradient id="Áåçûìÿííûé_ãðàäèåíò_300-9" x1="737.63" y1="391.26" x2="737.63" y2="386.35" xlink:href="#Áåçûìÿííûé_ãðàäèåíò_300"/><linearGradient id="Áåçûìÿííûé_ãðàäèåíò_300-10" x1="815.19" y1="391.88" x2="815.19" y2="377.17" xlink:href="#Áåçûìÿííûé_ãðàäèåíò_300"/><linearGradient id="Áåçûìÿííûé_ãðàäèåíò_106-4" x1="815.23" y1="388.88" x2="815.23" y2="357.52" xlink:href="#Áåçûìÿííûé_ãðàäèåíò_106"/><linearGradient id="Áåçûìÿííûé_ãðàäèåíò_300-11" x1="657.42" y1="391.88" x2="657.42" y2="372.33" xlink:href="#Áåçûìÿííûé_ãðàäèåíò_300"/><linearGradient id="Áåçûìÿííûé_ãðàäèåíò_123" x1="592.96" y1="400" x2="592.96" y2="389" gradientUnits="userSpaceOnUse"><stop offset="0" stop-color="#7763cc"/><stop offset="1" stop-color="#5c81ff"/></linearGradient><linearGradient id="Áåçûìÿííûé_ãðàäèåíò_296" x1="115.46" y1="52.9" x2="291.36" y2="52.9" gradientUnits="userSpaceOnUse"><stop offset="0" stop-color="#745ebd"/><stop offset="1" stop-color="#542e77"/></linearGradient><linearGradient id="Áåçûìÿííûé_ãðàäèåíò_296-2" x1="146.57" y1="39.33" x2="291.36" y2="39.33" xlink:href="#Áåçûìÿííûé_ãðàäèåíò_296"/><linearGradient id="Áåçûìÿííûé_ãðàäèåíò_296-3" x1="298.97" y1="66.26" x2="409.78" y2="66.26" xlink:href="#Áåçûìÿííûé_ãðàäèåíò_296"/><linearGradient id="Áåçûìÿííûé_ãðàäèåíò_296-4" x1="311.57" y1="64.14" x2="419.27" y2="64.14" xlink:href="#Áåçûìÿííûé_ãðàäèåíò_296"/><linearGradient id="Áåçûìÿííûé_ãðàäèåíò_296-5" x1="354.87" y1="33.21" x2="424.72" y2="33.21" xlink:href="#Áåçûìÿííûé_ãðàäèåíò_296"/><linearGradient id="Áåçûìÿííûé_ãðàäèåíò_296-6" x1="344.43" y1="38.01" x2="391.95" y2="38.01" xlink:href="#Áåçûìÿííûé_ãðàäèåíò_296"/><linearGradient id="Áåçûìÿííûé_ãðàäèåíò_296-7" x1="623.64" y1="58.73" x2="685.95" y2="58.73" xlink:href="#Áåçûìÿííûé_ãðàäèåíò_296"/><linearGradient id="Áåçûìÿííûé_ãðàäèåíò_296-8" x1="633.8" y1="59.26" x2="704.19" y2="59.26" xlink:href="#Áåçûìÿííûé_ãðàäèåíò_296"/><linearGradient id="Áåçûìÿííûé_ãðàäèåíò_296-9" x1="459.75" y1="57.82" x2="561.25" y2="57.82" xlink:href="#Áåçûìÿííûé_ãðàäèåíò_296"/><linearGradient id="Áåçûìÿííûé_ãðàäèåíò_296-10" x1="780.03" y1="52.81" x2="876.26" y2="52.81" xlink:href="#Áåçûìÿííûé_ãðàäèåíò_296"/><linearGradient id="Áåçûìÿííûé_ãðàäèåíò_296-11" x1="724.46" y1="29.97" x2="850.44" y2="29.97" xlink:href="#Áåçûìÿííûé_ãðàäèåíò_296"/><linearGradient id="Áåçûìÿííûé_ãðàäèåíò_300-12" x1="942.61" y1="77.84" x2="942.61" y2="63.75" xlink:href="#Áåçûìÿííûé_ãðàäèåíò_300"/><linearGradient id="Áåçûìÿííûé_ãðàäèåíò_267" x1="888" y1="378.34" x2="1000" y2="378.34" xlink:href="#Áåçûìÿííûé_ãðàäèåíò_131"/><linearGradient id="Áåçûìÿííûé_ãðàäèåíò_266" x1="886.06" y1="395.03" x2="1001.75" y2="395.03" gradientUnits="userSpaceOnUse"><stop offset="0" stop-color="#5b5ee5"/><stop offset="1" stop-color="#77528b"/></linearGradient><linearGradient id="Áåçûìÿííûé_ãðàäèåíò_106-5" x1="893.99" y1="378.8" x2="893.99" y2="367.61" xlink:href="#Áåçûìÿííûé_ãðàäèåíò_106"/><linearGradient id="Áåçûìÿííûé_ãðàäèåíò_296-12" x1="942.61" y1="59.12" x2="1000.44" y2="59.12" xlink:href="#Áåçûìÿííûé_ãðàäèåíò_296"/><linearGradient id="Áåçûìÿííûé_ãðàäèåíò_296-13" x1="920.67" y1="57.39" x2="955.93" y2="57.39" xlink:href="#Áåçûìÿííûé_ãðàäèåíò_296"/><linearGradient id="Áåçûìÿííûé_ãðàäèåíò_296-14" x1="882.9" y1="36.55" x2="921.95" y2="36.55" xlink:href="#Áåçûìÿííûé_ãðàäèåíò_296"/><linearGradient id="Áåçûìÿííûé_ãðàäèåíò_296-15" x1="897.94" y1="31.5" x2="975.95" y2="31.5" xlink:href="#Áåçûìÿííûé_ãðàäèåíò_296"/><linearGradient id="Áåçûìÿííûé_ãðàäèåíò_296-16" x1="54.03" y1="70.17" x2="225.54" y2="70.17" xlink:href="#Áåçûìÿííûé_ãðàäèåíò_296"/><linearGradient id="Áåçûìÿííûé_ãðàäèåíò_296-17" x1="11.48" y1="376.94" x2="50.13" y2="376.94" xlink:href="#Áåçûìÿííûé_ãðàäèåíò_296"/><linearGradient id="Áåçûìÿííûé_ãðàäèåíò_296-18" x1="53.58" y1="368.12" x2="82.43" y2="368.12" xlink:href="#Áåçûìÿííûé_ãðàäèåíò_296"/><linearGradient id="Áåçûìÿííûé_ãðàäèåíò_296-19" x1="623.75" y1="359.17" x2="1000.87" y2="359.17" xlink:href="#Áåçûìÿííûé_ãðàäèåíò_296"/><linearGradient id="Áåçûìÿííûé_ãðàäèåíò_296-20" x1="315.8" y1="75.22" x2="315.8" y2="70.17" xlink:href="#Áåçûìÿííûé_ãðàäèåíò_296"/><linearGradient id="Áåçûìÿííûé_ãðàäèåíò_296-21" x1="193.88" y1="61.34" x2="193.88" y2="54.34" xlink:href="#Áåçûìÿííûé_ãðàäèåíò_296"/><linearGradient id="Áåçûìÿííûé_ãðàäèåíò_296-22" x1="146.19" y1="73.92" x2="146.19" y2="70.17" xlink:href="#Áåçûìÿííûé_ãðàäèåíò_296"/><linearGradient id="Áåçûìÿííûé_ãðàäèåíò_296-23" x1="130.19" y1="66.44" x2="130.19" y2="64.95" xlink:href="#Áåçûìÿííûé_ãðàäèåíò_296"/><linearGradient id="Áåçûìÿííûé_ãðàäèåíò_296-24" x1="77.48" y1="65.69" x2="77.48" y2="63.8" xlink:href="#Áåçûìÿííûé_ãðàäèåíò_296"/><linearGradient id="Áåçûìÿííûé_ãðàäèåíò_296-25" x1="241.33" y1="66.26" x2="241.33" y2="62.9" xlink:href="#Áåçûìÿííûé_ãðàäèåíò_296"/><linearGradient id="Áåçûìÿííûé_ãðàäèåíò_296-26" x1="263.38" y1="72.73" x2="263.38" y2="70.11" xlink:href="#Áåçûìÿííûé_ãðàäèåíò_296"/><linearGradient id="Áåçûìÿííûé_ãðàäèåíò_296-27" x1="135.03" y1="20.54" x2="135.03" y2="14.74" xlink:href="#Áåçûìÿííûé_ãðàäèåíò_296"/><linearGradient id="Áåçûìÿííûé_ãðàäèåíò_296-28" x1="162.31" y1="21.78" x2="162.31" y2="17.98" xlink:href="#Áåçûìÿííûé_ãðàäèåíò_296"/><linearGradient id="Áåçûìÿííûé_ãðàäèåíò_296-29" x1="176.99" y1="20.88" x2="176.99" y2="17.98" xlink:href="#Áåçûìÿííûé_ãðàäèåíò_296"/><linearGradient id="Áåçûìÿííûé_ãðàäèåíò_296-30" x1="38.08" y1="28.03" x2="38.08" y2="25.15" xlink:href="#Áåçûìÿííûé_ãðàäèåíò_296"/><linearGradient id="Áåçûìÿííûé_ãðàäèåíò_296-31" x1="19.74" y1="27.59" x2="19.74" y2="25.57" xlink:href="#Áåçûìÿííûé_ãðàäèåíò_296"/><linearGradient id="Áåçûìÿííûé_ãðàäèåíò_164" x1="173" y1="58.73" x2="173" y2="36.41" gradientUnits="userSpaceOnUse"><stop offset="0" stop-color="#451c61"/><stop offset="0.34" stop-color="#492165"/><stop offset="0.72" stop-color="#542e72"/><stop offset="1" stop-color="#613d81"/></linearGradient><linearGradient id="Áåçûìÿííûé_ãðàäèåíò_164-2" x1="216.3" y1="59.5" x2="216.3" y2="43.35" xlink:href="#Áåçûìÿííûé_ãðàäèåíò_164"/><linearGradient id="Áåçûìÿííûé_ãðàäèåíò_164-3" x1="316.46" y1="71.9" x2="316.46" y2="63.43" xlink:href="#Áåçûìÿííûé_ãðàäèåíò_164"/><linearGradient id="Áåçûìÿííûé_ãðàäèåíò_164-4" x1="138.07" y1="16.4" x2="138.07" y2="0" xlink:href="#Áåçûìÿííûé_ãðàäèåíò_164"/><linearGradient id="Áåçûìÿííûé_ãðàäèåíò_164-5" x1="245.43" y1="64.95" x2="245.43" y2="58.73" xlink:href="#Áåçûìÿííûé_ãðàäèåíò_164"/><linearGradient id="Áåçûìÿííûé_ãðàäèåíò_164-6" x1="164.85" y1="17.98" x2="164.85" y2="13.68" xlink:href="#Áåçûìÿííûé_ãðàäèåíò_164"/><linearGradient id="Áåçûìÿííûé_ãðàäèåíò_164-7" x1="179.29" y1="17.98" x2="179.29" y2="7.89" xlink:href="#Áåçûìÿííûé_ãðàäèåíò_164"/><linearGradient id="Áåçûìÿííûé_ãðàäèåíò_153" x1="131.33" y1="66.26" x2="131.33" y2="61.34" gradientUnits="userSpaceOnUse"><stop offset="0" stop-color="#310a48"/><stop offset="0.46" stop-color="#330d4d"/><stop offset="0.97" stop-color="#3a175a"/><stop offset="1" stop-color="#3b185b"/></linearGradient><linearGradient id="Áåçûìÿííûé_ãðàäèåíò_153-2" x1="147.13" y1="70.17" x2="147.13" y2="62.7" xlink:href="#Áåçûìÿííûé_ãðàäèåíò_153"/><linearGradient id="Áåçûìÿííûé_ãðàäèåíò_164-8" x1="38.98" y1="25.73" x2="38.98" y2="17.98" xlink:href="#Áåçûìÿííûé_ãðàäèåíò_164"/><linearGradient id="Áåçûìÿííûé_ãðàäèåíò_164-9" x1="21.61" y1="25.73" x2="21.61" y2="19.2" xlink:href="#Áåçûìÿííûé_ãðàäèåíò_164"/><linearGradient id="Áåçûìÿííûé_ãðàäèåíò_153-3" x1="78.81" y1="63.8" x2="78.81" y2="58.73" xlink:href="#Áåçûìÿííûé_ãðàäèåíò_153"/><linearGradient id="Áåçûìÿííûé_ãðàäèåíò_153-4" x1="268" y1="70.17" x2="268" y2="47.57" xlink:href="#Áåçûìÿííûé_ãðàäèåíò_153"/><linearGradient id="Áåçûìÿííûé_ãðàäèåíò_296-32" x1="216.3" y1="59.5" x2="216.3" y2="43.35" xlink:href="#Áåçûìÿííûé_ãðàäèåíò_296"/><linearGradient id="Áåçûìÿííûé_ãðàäèåíò_296-33" x1="173" y1="58.73" x2="173" y2="36.41" xlink:href="#Áåçûìÿííûé_ãðàäèåíò_296"/><linearGradient id="Áåçûìÿííûé_ãðàäèåíò_296-34" x1="245.43" y1="64.95" x2="245.43" y2="58.73" xlink:href="#Áåçûìÿííûé_ãðàäèåíò_296"/><linearGradient id="Áåçûìÿííûé_ãðàäèåíò_164-10" x1="233.48" y1="63.95" x2="233.48" y2="61.34" xlink:href="#Áåçûìÿííûé_ãðàäèåíò_164"/><linearGradient id="Áåçûìÿííûé_ãðàäèåíò_296-35" x1="233.48" y1="63.95" x2="233.48" y2="61.84" xlink:href="#Áåçûìÿííûé_ãðàäèåíò_296"/><linearGradient id="Áåçûìÿííûé_ãðàäèåíò_296-36" x1="268" y1="70.17" x2="268" y2="49.11" xlink:href="#Áåçûìÿííûé_ãðàäèåíò_296"/><linearGradient id="Áåçûìÿííûé_ãðàäèåíò_296-37" x1="316.46" y1="71.9" x2="316.46" y2="63.43" xlink:href="#Áåçûìÿííûé_ãðàäèåíò_296"/><linearGradient id="Áåçûìÿííûé_ãðàäèåíò_296-38" x1="78.81" y1="63.8" x2="78.81" y2="58.73" xlink:href="#Áåçûìÿííûé_ãðàäèåíò_296"/><linearGradient id="Áåçûìÿííûé_ãðàäèåíò_296-39" x1="38.98" y1="25.73" x2="38.98" y2="22.65" xlink:href="#Áåçûìÿííûé_ãðàäèåíò_296"/><linearGradient id="Áåçûìÿííûé_ãðàäèåíò_296-40" x1="21.61" y1="25.73" x2="21.61" y2="21.04" xlink:href="#Áåçûìÿííûé_ãðàäèåíò_296"/><linearGradient id="Áåçûìÿííûé_ãðàäèåíò_296-41" x1="138.07" y1="16.4" x2="138.07" y2="2.53" xlink:href="#Áåçûìÿííûé_ãðàäèåíò_296"/><linearGradient id="Áåçûìÿííûé_ãðàäèåíò_296-42" x1="164.85" y1="17.98" x2="164.85" y2="14.74" xlink:href="#Áåçûìÿííûé_ãðàäèåíò_296"/><linearGradient id="Áåçûìÿííûé_ãðàäèåíò_296-43" x1="179.29" y1="17.98" x2="179.29" y2="9.52" xlink:href="#Áåçûìÿííûé_ãðàäèåíò_296"/><linearGradient id="Áåçûìÿííûé_ãðàäèåíò_296-44" x1="147.13" y1="70.17" x2="147.13" y2="64.95" xlink:href="#Áåçûìÿííûé_ãðàäèåíò_296"/><linearGradient id="Áåçûìÿííûé_ãðàäèåíò_296-45" x1="131.33" y1="66.26" x2="131.33" y2="61.84" xlink:href="#Áåçûìÿííûé_ãðàäèåíò_296"/><linearGradient id="Áåçûìÿííûé_ãðàäèåíò_296-46" x1="1491.19" y1="380.7" x2="1491.19" y2="376.22" gradientTransform="matrix(-1, 0, 0, 1, 2132.95, -322.6)" xlink:href="#Áåçûìÿííûé_ãðàäèåíò_296"/><linearGradient id="Áåçûìÿííûé_ãðàäèåíò_296-47" x1="1434.35" y1="393.72" x2="1434.35" y2="390.75" gradientTransform="matrix(-1, 0, 0, 1, 2132.95, -322.6)" xlink:href="#Áåçûìÿííûé_ãðàäèåíò_296"/><linearGradient id="Áåçûìÿííûé_ãðàäèåíò_296-48" x1="1444.75" y1="378.49" x2="1444.75" y2="376.17" gradientTransform="matrix(-1, 0, 0, 1, 2132.95, -322.6)" xlink:href="#Áåçûìÿííûé_ãðàäèåíò_296"/><linearGradient id="Áåçûìÿííûé_ãðàäèåíò_164-11" x1="1491.77" y1="377.75" x2="1491.77" y2="370.26" gradientTransform="matrix(-1, 0, 0, 1, 2132.95, -322.6)" xlink:href="#Áåçûìÿííûé_ãðàäèåíò_164"/><linearGradient id="Áåçûìÿííûé_ãðàäèåíò_164-12" x1="1437.99" y1="392.57" x2="1437.99" y2="387.05" gradientTransform="matrix(-1, 0, 0, 1, 2132.95, -322.6)" xlink:href="#Áåçûìÿííûé_ãðàäèåíò_164"/><linearGradient id="Áåçûìÿííûé_ãðàäèåíò_153-5" x1="1448.85" y1="376.22" x2="1448.85" y2="356.2" gradientTransform="matrix(-1, 0, 0, 1, 2132.95, -322.6)" xlink:href="#Áåçûìÿííûé_ãðàäèåíò_153"/><linearGradient id="Áåçûìÿííûé_ãðàäèåíò_296-49" x1="1437.99" y1="392.57" x2="1437.99" y2="387.05" gradientTransform="matrix(-1, 0, 0, 1, 2132.95, -322.6)" xlink:href="#Áåçûìÿííûé_ãðàäèåíò_296"/><linearGradient id="Áåçûìÿííûé_ãðàäèåíò_296-50" x1="1448.85" y1="376.22" x2="1448.85" y2="357.57" gradientTransform="matrix(-1, 0, 0, 1, 2132.95, -322.6)" xlink:href="#Áåçûìÿííûé_ãðàäèåíò_296"/><linearGradient id="Áåçûìÿííûé_ãðàäèåíò_296-51" x1="1491.77" y1="377.75" x2="1491.77" y2="370.26" gradientTransform="matrix(-1, 0, 0, 1, 2132.95, -322.6)" xlink:href="#Áåçûìÿííûé_ãðàäèåíò_296"/></defs><g class="cls-2"><g id="land_01"><g class="cls-3"><path class="cls-4" d="M1000,400S1.62,401,.19,400s0-73.67,0-73.67L1000,341Z" transform="translate(0.44 -322.6)"/><polygon class="cls-5" points="95.44 40.03 95.44 46.35 43.11 77.4 29.44 77.64 95.44 40.03"/><path class="cls-6" d="M862.75,358.12l.57,3.76s13.85,7.54,22.1,8.29,115.45-13.42,115.45-13.42l-.87-2.24Z" transform="translate(0.44 -322.6)"/><path class="cls-7" d="M0,353.67s49.5,4.91,63.62,4.62S95.4,349,95.4,349l0-1.25H0Z" transform="translate(0.44 -322.6)"/><polygon class="cls-8" points="706 20.41 708.28 39.65 672.05 38.56 673.3 26.72 706 20.41"/><polygon class="cls-9" points="528.11 30.4 526.76 45.39 430.01 47.23 428.43 31.88 528.11 30.4"/><path class="cls-10" d="M623.75,354.48V363s-33.73,2.28-61.44.39l1.52-7.65Z" transform="translate(0.44 -322.6)"/><polygon class="cls-11" points="549.12 36.73 548.78 41.55 585.36 41.55 585.36 37.42 569.67 38.03 569.28 36.73 549.12 36.73"/><path class="cls-12" d="M388.17,348.5c-1.8,1.26,30.83,13,70.16,14.51s67.5-6.84,69.34-10S483,341.82,456.33,341,391.5,346.17,388.17,348.5Z" transform="translate(0.44 -322.6)"/><path class="cls-13" d="M100,345.25l3.5,7.26s130.88,6.85,162.38,7.23a431.33,431.33,0,0,0,56.24-2.94l7.88-4.66Z" transform="translate(0.44 -322.6)"/><polygon class="cls-14" points="439.14 15.38 431.6 45.02 388.54 58.9 314.41 54.6 306.59 38.96 439.14 15.38"/><polygon class="cls-15" points="298.88 38.77 300.57 54.6 289.53 53.69 263.32 41.41 264.42 37 298.88 38.77"/><polygon class="cls-16" points="380.38 54.57 380.35 60.07 320.3 53.69 320.19 49.02 297.34 49.9 297.34 54.6 292.44 54.6 259.69 77.84 593.28 76.16 594.31 63.75 500.44 54.57 380.38 54.57"/><path class="cls-17" d="M593.86,386.35c.4,3.06-123.11,3.35-161.11,0s-53.62-6.76-52.81-9.18,47.81-12.67,106.31-11.42S593.11,380.6,593.86,386.35Z" transform="translate(0.44 -322.6)"/><polygon class="cls-18" points="447.61 68.32 447.67 74.6 431.6 74.6 430.11 68.32 447.61 68.32"/><path class="cls-12" d="M526.5,365.64c-3.19.77,36.33,8,46.83,8s29.17-5.05,30.34-8S543.33,361.62,526.5,365.64Z" transform="translate(0.44 -322.6)"/><path class="cls-12" d="M548.67,359.33c1.22.81,18.5,2,20.17,0s-9.5-3.83-13.67-3.33S547.92,358.83,548.67,359.33Z" transform="translate(0.44 -322.6)"/><path class="cls-12" d="M539.91,361.23c.54.74-3.92,2-7.7,1.74s-4.24-2.06-3.4-3.09S538.38,359.15,539.91,361.23Z" transform="translate(0.44 -322.6)"/><path class="cls-12" d="M543.44,357.29c.33.37-2.39,1-4.71.86s-2.59-1-2.08-1.54S542.5,356.24,543.44,357.29Z" transform="translate(0.44 -322.6)"/><path class="cls-12" d="M372.44,352.81c-.66.86,4.37,1.88,10.25,1.63s8.56-.69,8.81-1.63-5-2.93-10.12-3S373.06,352,372.44,352.81Z" transform="translate(0.44 -322.6)"/><path class="cls-12" d="M100,345.25s117.75,12.25,179.75,11.5S420.5,340.5,423,339.5s-3.84-3.92-7.92-5S150,326.33,150,326.33C131.69,326.91,116.12,332.91,100,345.25Z" transform="translate(0.44 -322.6)"/><path class="cls-12" d="M264,359.6c-1.56.7,15.69,4.26,21.29,4.4s12.67-1.93,13.17-2.63C300.38,358.67,269.85,357,264,359.6Z" transform="translate(0.44 -322.6)"/><path class="cls-19" d="M283.17,397.83c-2.26-.51,16-21.07,35.5-23.25s104.83,12.1,107.16,14.18S301.33,402,283.17,397.83Z" transform="translate(0.44 -322.6)"/><path class="cls-20" d="M429.67,390.92c-1.32-.52,10.16-2.82,13.75-2.16s4,1.49,3.75,2.16S432.83,392.17,429.67,390.92Z" transform="translate(0.44 -322.6)"/><path class="cls-21" d="M428,388.08c-.25.53,2.71,1.23,4.33.68a3.06,3.06,0,0,0,2-1.59S428.5,387,428,388.08Z" transform="translate(0.44 -322.6)"/><path class="cls-22" d="M149.71,352.14s88.54,4.24,111.29,9.18,35.28,12.33,35.89,15.88-22.72,23.24-22.72,23.24L38.58,400C70.54,379,94.91,365,149.71,352.14Z" transform="translate(0.44 -322.6)"/><path class="cls-12" d="M296.89,372.5c1.24,1,5.49,2.41,10.73,2.08s10.68-1.13,12.13-3-12.87-4-16-4S295.7,371.5,296.89,372.5Z" transform="translate(0.44 -322.6)"/><path class="cls-23" d="M306.15,361.56c-1.77,3,56.59,4.84,88.19-5.25S438.4,339.19,438.69,338s-44-1-69.74,3.35c-13.77,2.33-30,7.23-42.47,11.67C315.59,356.86,307.31,359.6,306.15,361.56Z" transform="translate(0.44 -322.6)"/><polygon class="cls-24" points="722.44 21.41 708.28 39.65 757.78 43.04 760.44 43.04 871.28 36.67 874.44 26.82 722.44 21.41"/><path class="cls-25" d="M766.33,386.35l-1.16,2.49a233,233,0,0,1-30.42,2.41c-17.08.25-25.82-3.67-25.82-3.67l.07-1.23Z" transform="translate(0.44 -322.6)"/><path class="cls-26" d="M744.38,377.17l-.12,3.15s27.15,6.31,41.45,8.8l29.13,2.76L882.67,389l3.45-8.32Z" transform="translate(0.44 -322.6)"/><path class="cls-12" d="M511.5,345.12c-.71.64,25.62,8.5,37.38,9.26s30.74-2.88,32-4.63-25-7-33.76-7.13S512.75,344,511.5,345.12Z" transform="translate(0.44 -322.6)"/><path class="cls-12" d="M563.83,355.75c-.21.87,23.42,1.68,38,.9s21.87-2.17,21.87-2.17a177.46,177.46,0,0,0-29.13-2.43A134.44,134.44,0,0,0,563.83,355.75Z" transform="translate(0.44 -322.6)"/><path class="cls-12" d="M565.62,361.57c.2.34,6.52.68,11.75.68s7.55-1.53,7.55-2.22-11.85-1.38-14.37-.81S565.32,361.07,565.62,361.57Z" transform="translate(0.44 -322.6)"/><path class="cls-12" d="M446.68,337.34s43.87,6.94,59.65,6.66,71.43-8.67,71.43-8.67S475.93,337.47,446.68,337.34Z" transform="translate(0.44 -322.6)"/><path class="cls-12" d="M548.38,340.92c-.69.34,7,2.08,10.83,2.25s10.46-4.79,10-5.92S549.88,340.17,548.38,340.92Z" transform="translate(0.44 -322.6)"/><path class="cls-12" d="M565,342.83c0,.79,13.09,4.11,22.92,5.48s28.54-5.48,28.54-5.48-15.64-3.21-21.94-4.26-18.19-.81-20.9-.2S565,342.14,565,342.83Z" transform="translate(0.44 -322.6)"/><path class="cls-12" d="M607.5,366.88C605.41,367.38,678,382,709,380s44.47-9.48,45-13.12S630.72,361.25,607.5,366.88Z" transform="translate(0.44 -322.6)"/><path class="cls-12" d="M709,386.35c-1.28-.32,15-5.64,28.33-6.16s29,3.85,29,6.16S725.5,390.54,709,386.35Z" transform="translate(0.44 -322.6)"/><path class="cls-27" d="M744.38,377.17c2,1.06,48.55,9.81,74.29,11.47s64.82-5.79,64.82-5.79c9.76-2.66-8-19.49-33.49-25.33,0,0-87.67,7.77-90,8.12S742.79,376.34,744.38,377.17Z" transform="translate(0.44 -322.6)"/><path class="cls-12" d="M767.48,361.16c-1.17-.13,17.69-4.33,33-4.41S821.67,359,821.67,359,781.81,362.66,767.48,361.16Z" transform="translate(0.44 -322.6)"/><path class="cls-12" d="M850,341s-122.42,1.91-127.58,3.07,24.69,12.05,32.91,13.46,48-2.07,49.5-3,19.5,3,19.5,3,49.67-4.95,49.67-8.1S850,341,850,341Z" transform="translate(0.44 -322.6)"/><path class="cls-28" d="M592.83,372.33l6.84,19.55L685,389.74s32.76-4.16,37-11.2Z" transform="translate(0.44 -322.6)"/><path class="cls-29" d="M592.83,372.33c0,1,21.9,7.38,55.92,12.42s71.75-3.17,73.25-6.21S666.75,368.25,640,368A229,229,0,0,0,592.83,372.33Z" transform="translate(0.44 -322.6)"/><path class="cls-30" d="M599.67,391.88,486.89,396.5,289.08,400H896.83C884,393.64,870.64,389.58,850,390l-37.5,2-98-3Z" transform="translate(0.44 -322.6)"/><path class="cls-12" d="M672.85,349.32s17.46-9.87,20.5-10.25,12.37,2.94,12.2,3.94-24.17,8.48-27.11,8.43A10.71,10.71,0,0,1,672.85,349.32Z" transform="translate(0.44 -322.6)"/><polygon class="cls-31" points="124.83 35.69 291.36 62.56 283.42 70.11 115.46 39.33 124.83 35.69"/><polygon class="cls-32" points="146.57 30.4 291.36 49.11 284.64 45.8 197.69 35.69 180.19 32.9 150.16 29.54 146.57 30.4"/><polygon class="cls-33" points="369.94 76.16 369.94 72.47 298.97 59.98 305.22 56.35 344.11 64.56 409.78 68.32 408.26 75.3 369.94 76.16"/><polygon class="cls-34" points="412.61 75.22 415.94 68.07 380.35 64.56 316.61 56.35 311.57 53.69 313.64 53.05 316.69 55.59 380.35 63.95 419.26 67.64 417.53 75.22 412.61 75.22"/><polygon class="cls-35" points="405.78 48.4 409.78 28.66 372.82 25.81 358.45 22.65 354.87 21.41 374.11 18.01 374.11 22.52 389.82 23.02 418.45 23.02 424.72 22.93 420.47 46.37 405.78 48.4"/><polygon class="cls-36" points="389.79 51.43 391.95 34.2 374.11 31.88 356.82 30.15 348.11 27.21 345.98 24.26 344.43 24.71 347.44 28.03 359.13 31.88 383.88 34.2 388.54 35.47 388.43 51.75 389.79 51.43"/><polygon class="cls-37" points="623.64 69.05 624.19 57.85 653.72 54.57 681.84 48.4 685.95 48.87 668.82 52.15 642.33 57.55 630.07 59.02 626.34 68.62 623.64 69.05"/><polygon class="cls-38" points="633.8 68.43 639.27 60.59 658.94 57.59 681.17 51.07 695.55 50.09 704.19 51.07 672.05 61.15 670.82 63.43 670.83 67.5 633.8 68.43"/><polygon class="cls-39" points="459.75 43.35 487.33 53.05 476.1 57.59 526.76 65.46 526.76 72.28 559.23 70.95 561.25 65.85 528.11 63.43 498.69 54.15 496.19 49.17 471.3 43.35 459.75 43.35"/><polygon class="cls-40" points="780.03 65.38 780.96 61.36 831.69 45.73 862.8 38.78 876.26 45.72 792.42 63.08 789.43 66.83 780.03 65.38"/><polygon class="cls-41" points="724.46 40.76 736.14 28.84 751.62 24.7 801.3 20.94 842.3 18.89 850.44 18.39 801.85 22.57 743.07 30.03 735.94 41.55 724.46 40.76"/><path class="cls-12" d="M95.67,350.63s41,3.12,42.17,3.63S106.1,361,95.43,359.77,81.17,352.76,95.67,350.63Z" transform="translate(0.44 -322.6)"/><path class="cls-12" d="M-.22,352.14,57,356.78c15,1.22,33.87-6.53,38.43-9s-18.16-17.63-24.67-20.19S0,326.33,0,326.33Z" transform="translate(0.44 -322.6)"/><path class="cls-12" d="M79,327.49s9.4,12.93,17,13.09,30.3-12.4,30.3-12.4Z" transform="translate(0.44 -322.6)"/><path class="cls-12" d="M0,356.91s88.56,3.31,95,5.72-66,37.61-66,37.61L.19,400Z" transform="translate(0.44 -322.6)"/><polygon class="cls-42" points="888.44 63.75 889.57 67.45 886.65 68.43 884.78 72.14 892.61 77.4 1000.44 77.84 1000.44 71.9 888.44 63.75"/><path class="cls-43" d="M1000,363.39s-56-4.38-81.69,3.49c-13.69,4.2-30.06,15.76-30.31,19.47s112,8.15,112,8.15Z" transform="translate(0.44 -322.6)"/><path class="cls-44" d="M899.25,400s-14.84-4.29-13-9,115.54,9,115.54,9Z" transform="translate(0.44 -322.6)"/><path class="cls-45" d="M882.75,371c-1.46.95,3,6.35,7.75,7.67s14.75-6.43,15-9.43S887.75,367.73,882.75,371Z" transform="translate(0.44 -322.6)"/><path class="cls-12" d="M862.75,358.12c-1.4.88,11.1,9,18.59,8.76s44.12-4.28,56.16-6.25c16.94-2.77,62.5-6.12,62.5-6.12s-74.88-13.05-92.38-9.34S866.14,356,862.75,358.12Z" transform="translate(0.44 -322.6)"/><path class="cls-12" d="M854,339s16.66,7.37,25,8.68S930.33,340,930.33,340Z" transform="translate(0.44 -322.6)"/><polygon class="cls-46" points="942.61 40.4 991.19 71.9 991.19 76.11 1000.44 77.84 1000.44 68.66 945.94 40.4 942.61 40.4"/><polygon class="cls-47" points="925.97 42.52 955.93 68.66 955.93 72.26 947.69 71.42 947.44 69.9 920.67 44.28 925.97 42.52"/><polygon class="cls-48" points="882.89 28.9 913.68 41.17 913.68 45.01 919.64 44.02 921.95 40.2 885.73 28.1 882.89 28.9"/><polygon class="cls-49" points="897.95 24.9 967.44 34.66 967.44 38.53 975.95 37.44 975.95 34.15 899.67 24.48 897.95 24.9"/><polygon class="cls-50" points="62.44 62.7 225.54 77.4 134.44 77.64 54.03 67.77 62.44 62.7"/><path class="cls-51" d="M11.48,357.37l32.73,35.34v3.81l5.92-3.81v-3s-26.59-21.1-31.59-32.06Z" transform="translate(0.44 -322.6)"/><path class="cls-52" d="M56.5,359.77s2.55,7.41,6.4,11.94,19.53.78,19.53.78v2l-5.05,2.46-.27-1.44s-8.44,1.33-15.11-3-8.42-13.2-8.42-13.2Z" transform="translate(0.44 -322.6)"/><path class="cls-53" d="M137.84,354.26l1.5-5.28s43.08.48,67.87,0,65.07-12.16,68.55-14.94-36.14-5.22-36.14-5.22l13.71.39s23.5.62,25.5,5S233.28,353.3,195.26,353v1.75Z" transform="translate(0.44 -322.6)"/><polygon class="cls-53" points="269.69 34.16 318.22 9.23 323.67 8.33 274.07 34.16 273.94 35.69 267.08 36.3 269.69 34.16"/><path class="cls-54" d="M623.75,359.33,641.89,364l26.88.14,72.57,4.19,61.12,8.86,198.41,2.1-.87-35.66c-18.3.24-142-2.64-175.28-2.23-57.06.72-85,1.7-102.72,2.6l-14.17,18.24-2.34-19.73c-4.58-2-7.87-3.48-11.93-3.48-2.68.43-13,5.86-20.71,10.28l-7.07,9.1Z" transform="translate(0.44 -322.6)"/><polygon class="cls-55" points="299.78 71.07 297.15 72.73 305.03 75.22 334.44 72.73 333.15 70.17 299.78 71.07"/><polygon class="cls-56" points="164.85 55.98 153.19 59.64 179.29 61.34 197.94 61.26 234.57 59.64 168.19 54.34 164.85 55.98"/><polygon class="cls-57" points="139.48 70.17 133.07 72.15 141.94 73.92 159.32 72.15 154.78 70.17 139.48 70.17"/><polygon class="cls-58" points="127.34 64.95 123.32 66.44 137.07 66.44 135.88 65.23 127.34 64.95"/><polygon class="cls-59" points="72.64 63.8 68.45 64.95 72.69 65.69 83.7 64.61 86.52 63.8 72.64 63.8"/><polygon class="cls-60" points="229.57 63.95 226.82 64.95 255.83 66.26 255.3 64.95 237.38 62.9 229.57 63.95"/><polygon class="cls-61" points="259.11 70.11 249.86 72.73 274.19 72.73 276.89 70.17 259.11 70.11"/><polygon class="cls-62" points="121.37 14.74 115.28 17.38 115.28 20.54 131.36 20.54 154.78 16.4 121.37 14.74"/><polygon class="cls-63" points="156.69 17.98 151.61 21.04 151.94 21.78 161.51 21.62 173 17.98 156.69 17.98"/><polygon class="cls-64" points="175 17.98 170.41 20.14 171.4 20.88 175.6 20.88 183.57 17.98 175 17.98"/><polygon class="cls-65" points="32.78 25.73 27.82 27.02 28.57 28.03 37.19 27.02 48.35 25.15 32.78 25.73"/><polygon class="cls-66" points="16.94 25.57 13.19 27.02 14.44 27.59 24.69 27.02 26.28 25.73 16.94 25.57"/><polygon class="cls-67" points="159.44 58.73 149.39 39.14 154.42 36.41 169.62 37.83 196.62 58.73 159.44 58.73"/><polygon class="cls-68" points="203.83 59.5 201.15 52.03 203.41 43.35 221.14 45.8 231.44 59.5 203.83 59.5"/><polygon class="cls-69" points="299.78 71.07 308.18 63.43 325.83 64.56 333.15 70.17 308.73 71.9 299.78 71.07"/><polygon class="cls-70" points="121.37 14.74 138.31 2.53 148.28 0 150.78 2.53 154.78 16.4 139.48 16.4 121.37 14.74"/><polygon class="cls-71" points="235.57 63.43 238.69 58.73 245.57 58.73 253.44 62.7 255.3 64.95 235.57 63.43"/><polygon class="cls-72" points="156.69 17.98 162.07 14.74 168.19 13.68 171.07 16.4 173 17.98 156.69 17.98"/><polygon class="cls-73" points="175 17.98 177.19 9.52 179.69 7.89 181.44 11 183.57 17.98 175 17.98"/><polygon class="cls-74" points="134.17 61.84 131.94 61.34 126.78 63.43 127.82 66.26 135.88 65.23 134.17 61.84"/><polygon class="cls-75" points="141.11 67.67 146.57 62.7 151.28 64.95 154.78 70.17 139.48 70.17 141.11 67.67"/><polygon class="cls-76" points="29.61 22.65 36.16 17.98 41.11 19.2 48.35 25.15 32.78 25.73 29.61 22.65"/><polygon class="cls-77" points="16.94 25.57 18.3 21.04 22.78 19.2 26.28 21.86 26.28 25.73 16.94 25.57"/><polygon class="cls-78" points="71.11 62.7 74.58 58.73 82.88 58.84 86.52 63.8 72.64 63.8 71.11 62.7"/><polygon class="cls-79" points="259.11 70.11 264.32 53.69 267.08 49.11 275.06 47.57 276.89 49.65 276.89 70.17 259.11 70.11"/><polygon class="cls-80" points="203.41 43.35 205.47 45.8 217.57 49.11 222.09 58.87 231.44 59.5 203.83 59.5 201.15 52.03 203.41 43.35"/><polygon class="cls-81" points="154.42 36.41 151.94 38.55 162.69 45.02 183.57 54.6 185.57 57.4 196.62 58.73 159.44 58.73 149.39 39.14 154.42 36.41"/><polygon class="cls-82" points="238.69 58.73 240.94 60.9 251.13 63.43 254.05 63.43 255.3 64.95 235.57 63.43 238.69 58.73"/><polygon class="cls-83" points="229.57 63.95 231.44 61.84 235.57 61.34 237.38 63.95 229.57 63.95"/><polygon class="cls-84" points="231.44 61.84 233.48 62.65 236.48 62.65 237.38 63.95 229.57 63.95 231.44 61.84"/><polygon class="cls-85" points="267.08 49.11 270.57 49.59 272.57 50.09 271.07 62.9 272.01 64.46 273.69 53.69 274.19 53.69 273.44 64.95 276.89 70.17 259.11 70.11 264.32 53.69 267.08 49.11"/><polygon class="cls-86" points="308.18 63.43 306.59 66.4 317.94 67.67 330.44 68.82 331.38 68.82 333.15 70.17 308.73 71.9 299.78 71.07 308.18 63.43"/><polygon class="cls-87" points="74.58 58.73 73.51 60.87 83.19 62.31 85.42 62.31 86.52 63.8 72.64 63.8 71.11 62.7 74.58 58.73"/><polygon class="cls-88" points="29.61 22.65 39.02 23.9 48.35 25.15 32.78 25.73 29.61 22.65"/><polygon class="cls-89" points="18.3 21.04 24.51 23.27 26.28 22.47 26.28 25.73 16.94 25.57 18.3 21.04"/><polygon class="cls-90" points="138.31 2.53 145.94 3.39 144.03 11.44 153.11 13.68 151.34 4.5 154.78 16.4 139.48 16.4 121.37 14.74 138.31 2.53"/><polygon class="cls-91" points="162.07 14.74 160.24 16.4 171.32 17.36 171.07 16.4 173 17.98 156.69 17.98 162.07 14.74"/><polygon class="cls-92" points="177.19 9.52 178.28 14.11 182.57 15.83 181.44 11 183.57 17.98 175 17.98 177.19 9.52"/><polygon class="cls-93" points="141.11 67.67 149.39 68.4 151.28 64.95 154.78 70.17 139.48 70.17 141.11 67.67"/><polygon class="cls-94" points="126.78 63.43 130.63 64.27 134.19 63.8 134.17 61.84 135.88 65.23 127.82 66.26 126.78 63.43"/><polygon class="cls-95" points="154.42 36.41 151.94 38.55 162.69 45.02 183.57 54.6 187.96 52.03 169.62 37.83 154.42 36.41"/><polygon class="cls-95" points="203.41 43.35 205.47 45.8 217.57 49.11 221.14 45.8 203.41 43.35"/><polygon class="cls-95" points="145.94 3.39 149.39 1.13 148.28 0 138.31 2.53 145.94 3.39"/><polygon class="cls-95" points="177.19 9.52 178.28 14.11 182.57 15.83 181.44 11 179.69 7.89 177.19 9.52"/><polygon class="cls-95" points="267.08 49.11 272.57 50.09 276.89 49.65 275.06 47.57 267.08 49.11"/><polygon class="cls-96" points="655.96 54.41 658.28 55.89 651.31 58.1 625.25 55.89 626.4 53.62 655.96 54.41"/><polygon class="cls-97" points="709.02 69.08 711.45 69.97 685.76 71.12 686.23 69.97 702.1 68.15 709.02 69.08"/><polygon class="cls-98" points="691.98 53.57 700.17 55.89 678.62 55.89 676.23 53.62 691.98 53.57"/><polygon class="cls-99" points="655.96 54.41 648.52 47.66 632.88 48.65 626.4 53.62 648.03 55.15 655.96 54.41"/><polygon class="cls-100" points="703.7 68.62 700.94 64.45 694.85 64.45 687.87 67.97 686.23 69.97 703.7 68.62"/><polygon class="cls-101" points="691.98 53.57 687.36 39.03 684.91 34.97 677.85 33.6 676.23 35.45 676.23 53.62 691.98 53.57"/><polygon class="cls-102" points="700.94 64.45 698.94 66.38 689.92 68.62 687.34 68.62 686.23 69.97 703.7 68.62 700.94 64.45"/><polygon class="cls-103" points="684.91 34.97 681.83 35.39 680.06 35.83 681.38 47.18 680.55 48.56 679.06 39.03 678.62 39.03 679.28 49 676.23 53.62 691.98 53.57 687.36 39.03 684.91 34.97"/><polygon class="cls-104" points="648.52 47.66 649.92 50.28 639.87 51.4 628.79 52.42 627.97 52.42 626.4 53.62 648.03 55.15 655.96 54.41 648.52 47.66"/><polygon class="cls-95" points="684.91 34.97 680.06 35.83 676.23 35.45 677.85 33.6 684.91 34.97"/></g></g></g></svg>