<svg xmlns="http://www.w3.org/2000/svg" xmlns:xlink="http://www.w3.org/1999/xlink" viewBox="0 0 1050.69 51.6"><defs><style>.cls-1{fill:none;}.cls-2{isolation:isolate;}.cls-3{clip-path:url(#clip-path);}.cls-4,.cls-5{fill-rule:evenodd;}.cls-4{fill:url(#Áåçûìÿííûé_ãðàäèåíò_246);}.cls-5{fill:#8bbddb;opacity:0.5;mix-blend-mode:soft-light;}</style><clipPath id="clip-path" transform="translate(24.71 -292.04)"><rect class="cls-1" width="1000" height="400"/></clipPath><radialGradient id="Áåçûìÿííûé_ãðàäèåíò_246" cx="524.71" cy="27.62" r="353.96" gradientUnits="userSpaceOnUse"><stop offset="0" stop-color="#a94fb3"/><stop offset="1" stop-color="#6746b3"/></radialGradient></defs><g class="cls-2"><g id="hill_02"><g class="cls-3"><polygon class="cls-4" points="1024.71 8.96 416.62 14.96 24.71 3.63 24.71 34.3 1024.71 51.6 1024.71 8.96"/><polygon class="cls-5" points="920.38 16.96 782.19 45.36 844.53 45.58 998.47 48.57 956.53 27.88 920.38 16.96"/><polygon class="cls-5" points="590.55 10.62 606.97 5.98 648.5 6.43 625.46 13.07 598.8 13.95 590.55 10.62"/><polygon class="cls-5" points="631.7 17.69 653.51 9.09 727.19 0 918.17 13.49 830.34 25.4 649.45 21.22 631.7 17.69"/><polygon class="cls-5" points="582.18 28.75 584.21 28.15 595.28 27.11 600.89 28.75 587.87 30.88 582.18 28.75"/><polygon class="cls-5" points="606.97 15.16 578.55 14.38 543.01 16.91 486.03 26.02 550.19 30.82 595.72 26.02 603.35 19.04 606.97 15.16"/><polygon class="cls-5" points="580.65 29.7 545.96 32.21 561.97 36.2 577.42 31.67 580.65 29.7"/><polygon class="cls-5" points="632.82 14.38 632.82 12.51 638.63 10.53 643.45 10.07 645.32 11.24 642.63 12.58 632.82 14.38"/><polygon class="cls-5" points="645.32 10.69 644.07 9.3 646.28 7.71 652.7 6.29 658.2 6.36 653.61 8.49 649.45 10.07 645.32 10.69"/><polygon class="cls-5" points="863.53 28.49 677.44 24.18 642.45 30.21 610.2 40.36 777.7 44.04 863.53 28.49"/><polygon class="cls-5" points="598.8 26.5 612.99 37.59 642.45 28.82 675.29 23 644.07 21.35 606.97 20.4 598.8 26.5"/><polygon class="cls-5" points="974.2 31.62 997.19 40.09 1017.85 33.94 1050.69 28.12 1019.47 26.47 982.37 25.51 974.2 31.62"/><polygon class="cls-5" points="434.35 22.02 296.15 41.32 358.5 41.47 512.43 43.5 470.5 29.44 434.35 22.02"/><polygon class="cls-5" points="104.52 17.71 120.94 14.55 162.47 14.86 139.43 19.37 112.77 19.97 104.52 17.71"/><polygon class="cls-5" points="145.67 22.52 167.48 16.67 241.16 10.49 432.14 19.66 344.31 27.75 163.42 24.91 145.67 22.52"/><polygon class="cls-5" points="96.15 30.03 98.18 29.62 109.25 28.91 114.86 30.03 101.84 31.48 96.15 30.03"/><polygon class="cls-5" points="120.94 20.8 92.52 20.26 56.98 21.99 0 28.18 64.16 31.43 109.69 28.18 117.32 23.43 120.94 20.8"/><polygon class="cls-5" points="94.62 30.67 59.93 32.38 75.94 35.09 91.39 32.01 94.62 30.67"/><polygon class="cls-5" points="146.79 20.26 146.79 18.99 152.6 17.65 157.42 17.33 159.29 18.13 156.6 19.04 146.79 20.26"/><polygon class="cls-5" points="159.29 17.76 158.04 16.81 160.25 15.73 166.67 14.77 172.16 14.81 167.58 16.26 163.42 17.33 159.29 17.76"/><polygon class="cls-5" points="377.5 29.86 191.41 26.92 156.42 31.02 124.17 37.92 291.67 40.42 377.5 29.86"/><polygon class="cls-5" points="112.77 28.5 126.96 36.04 156.42 30.08 189.26 26.13 158.04 25 120.94 24.35 112.77 28.5"/><polygon class="cls-5" points="488.17 34.02 511.16 39.77 536.93 39.96 547.79 33.67 533.44 30.52 496.34 29.87 488.17 34.02"/></g></g></g></svg>