<svg xmlns="http://www.w3.org/2000/svg" xmlns:xlink="http://www.w3.org/1999/xlink" viewBox="0 0 1000 109.48"><defs><style>.cls-1{fill:none;}.cls-2{isolation:isolate;}.cls-3{clip-path:url(#clip-path);}.cls-4,.cls-5{fill-rule:evenodd;}.cls-4{fill:url(#Áåçûìÿííûé_ãðàäèåíò_235);}.cls-5{fill:#8bbddb;opacity:0.5;mix-blend-mode:soft-light;}</style><clipPath id="clip-path" transform="translate(0 -200.19)"><rect class="cls-1" width="1000" height="400"/></clipPath><linearGradient id="Áåçûìÿííûé_ãðàäèåíò_235" x1="500" y1="309.67" x2="500" y2="200.19" gradientUnits="userSpaceOnUse"><stop offset="0" stop-color="#ac6fd6"/><stop offset="1" stop-color="#8424a5"/></linearGradient></defs><g class="cls-2"><g id="hill_01"><g class="cls-3"><path class="cls-4" d="M1000,200.19s-246.73,70.55-257.86,73.62c-53.57,14.78-127.46,6.3-137.89,7.94s-58.06,12.59-58.06,12.59S375,305,267.14,304.6,42.86,282.85,42.86,282.85l-7.15-7L0,264.25v45.42H1000Z" transform="translate(0 -200.19)"/><polygon class="cls-5" points="1000 0 825.65 49.83 888 50.15 989.67 35.44 1000 23.49 1000 0"/><polygon class="cls-5" points="812.85 59.13 829.27 52.13 870.8 52.82 847.77 62.82 821.1 64.15 812.85 59.13"/><polygon class="cls-5" points="854 69.78 875.81 56.82 949.49 43.13 1000 44.43 1000 79.56 871.75 75.09 854 69.78"/><polygon class="cls-5" points="835.29 66.45 838.13 64.21 848.39 63.97 854 66.45 840.98 69.66 835.29 66.45"/><polygon class="cls-5" points="829.27 65.97 800.85 64.8 765.31 68.61 708.33 82.33 772.49 89.56 818.02 82.33 825.65 71.82 829.27 65.97"/><polygon class="cls-5" points="813.84 53.33 777.85 63.26 800.52 60.76 810.61 56.3 813.84 53.33"/><polygon class="cls-5" points="549.5 93.59 539.95 100.52 566.62 102.34 599 86.55 603 82.39 549.5 93.59"/><polygon class="cls-5" points="609.27 82.39 616.5 86.55 660.4 90.33 685.5 85.59 689.72 82.33 609.27 82.39"/><polygon class="cls-5" points="855.13 64.8 855.13 61.98 860.94 59 865.75 58.3 867.63 60.06 864.94 62.08 855.13 64.8"/><polygon class="cls-5" points="867.63 59.24 866.37 57.14 868.58 54.74 875 52.6 880.5 52.71 875.92 55.92 871.75 58.3 867.63 59.24"/><polygon class="cls-5" points="427.99 100.3 495.25 102.34 515.5 98.96 542.01 96.68 546.19 94.15 427.99 100.3"/><polygon class="cls-5" points="407.5 101.41 392.37 103.18 388.68 105.55 417.25 106.96 431.88 105.55 458.88 102.34 425.88 100.39 407.5 101.41"/><polygon class="cls-5" points="449.42 104.72 463.5 102.56 475.17 102.56 483.75 104.09 469.42 105.64 449.42 104.72"/><polygon class="cls-5" points="222.75 103.27 243.71 104.01 258.67 104.34 239.42 107.4 230.83 105.77 225.1 105.22 222.75 103.27"/><polygon class="cls-5" points="251.79 106.31 265.38 107.5 275.92 106.87 275.08 105.33 273.13 104.42 258.67 104.34 251.79 106.31"/><polygon class="cls-5" points="0 64.06 0 78.27 27.83 80.64 35.71 75.67 0 64.06"/><polygon class="cls-5" points="42.86 82.65 17.86 89.18 53.59 99.14 118.98 100.52 126.33 97.17 129.24 95.17 42.86 82.65"/><polygon class="cls-5" points="15.58 88.89 38.58 97.65 58.33 106.47 11.47 105.33 2.67 103.67 0 100.52 0 87.31 15.58 88.89"/><polygon class="cls-5" points="98.5 101.43 120.92 101.43 143.63 103.53 156.25 106.47 134.5 106.47 118 107.4 98.5 101.43"/><polygon class="cls-5" points="120.92 100.52 124.88 99.55 132.21 100.03 137.56 101.43 128.75 101.43 124.38 101 120.92 100.52"/><polygon class="cls-5" points="1000 83.06 899.75 79.56 864.75 88.65 832.5 103.93 1000 109.47 1000 83.06"/><polygon class="cls-5" points="821.1 83.06 835.29 99.76 864.75 86.55 897.59 77.79 866.37 75.3 829.27 73.86 821.1 83.06"/></g></g></g></svg>